<svg width="177px" height="34px" viewBox="0 0 177 34" version="1.1" xmlns="http://www.w3.org/2000/svg" xmlns:xlink="http://www.w3.org/1999/xlink">
    <g id="title" stroke="none" stroke-width="1" fill="none" fill-rule="evenodd">
        <g transform="translate(-12.000000, 5.000000)" fill="#323232" fill-rule="nonzero">
            <path d="M186.021484,16.2167969 C186.125651,16.2428385 186.210286,16.203776 186.275391,16.0996094 L186.275391,16.0996094 L187.75,13.7753906 L187.193359,5.484375 C187.186849,5.42578125 187.167318,5.37858073 187.134766,5.34277344 C187.102214,5.30696615 187.063151,5.28417969 187.017578,5.27441406 C186.972005,5.26464844 186.924805,5.26790365 186.875977,5.28417969 C186.827148,5.30045573 186.786458,5.33463542 186.753906,5.38671875 L186.753906,5.38671875 L185.289062,7.7109375 L185.845703,16.0019531 C185.858724,16.1191406 185.917318,16.1907552 186.021484,16.2167969 Z M174.830078,21.3730469 C175.038411,21.3730469 175.25,21.3665365 175.464844,21.3535156 C175.679688,21.3404948 175.901042,21.3242188 176.128906,21.3046875 C176.636719,21.2526042 177.136393,21.1679688 177.62793,21.0507812 C178.119466,20.9335938 178.602865,20.7871094 179.078125,20.6113281 C179.546875,20.4355469 179.997721,20.2158203 180.430664,19.9521484 C180.863607,19.6884766 181.255859,19.4036458 181.607422,19.0976562 C181.978516,18.765625 182.289388,18.391276 182.540039,17.9746094 C182.79069,17.5579427 182.98112,17.1022135 183.111328,16.6074219 C183.189453,16.2949219 183.249674,15.9856771 183.291992,15.6796875 C183.33431,15.3736979 183.355469,15.0644531 183.355469,14.7519531 C183.355469,14.6998698 183.353841,14.6494141 183.350586,14.6005859 C183.347331,14.5517578 183.345703,14.5045573 183.345703,14.4589844 L183.345703,14.4589844 L182.955078,7.671875 C182.955078,7.61328125 182.937174,7.56445312 182.901367,7.52539062 C182.86556,7.48632812 182.82487,7.46191406 182.779297,7.45214844 C182.733724,7.44238281 182.686523,7.44563802 182.637695,7.46191406 C182.588867,7.4781901 182.548177,7.50911458 182.515625,7.5546875 L182.515625,7.5546875 L181.041016,9.96679688 L181.275391,13.6679688 C181.327474,14.3776042 181.366536,15.0188802 181.392578,15.5917969 C181.41862,16.1647135 181.431641,16.6953125 181.431641,17.1835938 C181.294922,17.2877604 181.06543,17.4065755 180.743164,17.5400391 C180.420898,17.6735026 180.002604,17.8313802 179.488281,18.0136719 C178.915365,18.2154948 178.355469,18.3701172 177.808594,18.4775391 C177.261719,18.5849609 176.714844,18.6516927 176.167969,18.6777344 C175.113281,18.7167969 174.315755,18.4856771 173.775391,17.984375 C173.580078,17.8085938 173.482422,17.5384115 173.482422,17.1738281 C173.482422,16.594401 173.723307,15.8326823 174.205078,14.8886719 L174.205078,14.8886719 L174.205078,14.8984375 C174.276693,14.7682292 174.301107,14.6624349 174.27832,14.5810547 C174.255534,14.4996745 174.209961,14.4443359 174.141602,14.4150391 C174.073242,14.3857422 173.995117,14.3808594 173.907227,14.4003906 C173.819336,14.4199219 173.746094,14.4622396 173.6875,14.5273438 C173.557292,14.7161458 173.414062,14.9326172 173.257812,15.1767578 C173.101562,15.4208984 172.938802,15.6861979 172.769531,15.9726562 C172.385417,16.6367188 172.082682,17.3268229 171.861328,18.0429688 C171.789714,18.2643229 171.739258,18.4807943 171.709961,18.6923828 C171.680664,18.9039714 171.666016,19.1139323 171.666016,19.3222656 C171.666016,19.4394531 171.670898,19.5582682 171.680664,19.6787109 C171.69043,19.7991536 171.711589,19.9244792 171.744141,20.0546875 C171.822266,20.3736979 171.999674,20.6373698 172.276367,20.8457031 C172.55306,21.0540365 172.91276,21.1940104 173.355469,21.265625 C173.576823,21.2981771 173.80957,21.3242188 174.053711,21.34375 C174.297852,21.3632812 174.556641,21.3730469 174.830078,21.3730469 Z M166.8125,17.59375 C166.949219,17.5807292 167.100586,17.5644531 167.266602,17.5449219 C167.432617,17.5253906 167.606771,17.5009766 167.789062,17.4716797 C167.971354,17.4423828 168.156901,17.4130859 168.345703,17.3837891 C168.534505,17.3544922 168.716797,17.3235677 168.892578,17.2910156 C169.205078,17.2324219 169.494792,17.1705729 169.761719,17.1054688 C170.028646,17.0403646 170.269531,16.96875 170.484375,16.890625 C170.549479,17.0989583 170.738281,17.2226562 171.050781,17.2617188 C171.167969,17.28125 171.307943,17.2910156 171.470703,17.2910156 C171.607422,17.2910156 171.749023,17.2845052 171.895508,17.2714844 C172.041992,17.2584635 172.193359,17.2389323 172.349609,17.2128906 C172.792318,17.1477865 173.283854,17.0403646 173.824219,16.890625 L173.824219,16.890625 L174.957031,16.5976562 C175.770833,16.2916667 176.521159,15.9205729 177.208008,15.484375 C177.894857,15.0481771 178.472656,14.5143229 178.941406,13.8828125 C179.266927,13.453125 179.572917,12.9583333 179.859375,12.3984375 L179.859375,12.3984375 L179.859375,12.4082031 C179.989583,12.1347656 180.054688,11.8841146 180.054688,11.65625 C180.054688,11.3046875 179.917969,10.9563802 179.644531,10.6113281 C179.345052,10.2532552 178.951172,10.0742188 178.462891,10.0742188 C178.397786,10.0742188 178.331055,10.077474 178.262695,10.0839844 C178.194336,10.0904948 178.114583,10.1035156 178.023438,10.1230469 C177.385417,10.2467448 176.89388,10.4615885 176.548828,10.7675781 C175.930339,11.3535156 175.334635,11.9508464 174.761719,12.5595703 C174.188802,13.1682943 173.632161,13.7884115 173.091797,14.4199219 C172.98112,14.4459635 172.870443,14.46875 172.759766,14.4882812 C172.649089,14.5078125 172.525391,14.5240885 172.388672,14.5371094 C172.453776,14.3808594 172.505859,14.2522786 172.544922,14.1513672 C172.583984,14.0504557 172.618164,13.9641927 172.647461,13.8925781 C172.676758,13.8209635 172.702799,13.7558594 172.725586,13.6972656 C172.748372,13.6386719 172.772786,13.5703125 172.798828,13.4921875 C172.805339,13.4726562 172.811849,13.436849 172.818359,13.3847656 C172.82487,13.3326823 172.828125,13.2675781 172.828125,13.1894531 C172.828125,12.9615885 172.740234,12.8476562 172.564453,12.8476562 C172.460286,12.8476562 172.365885,12.9127604 172.28125,13.0429688 C172.209635,13.2252604 172.110352,13.3863932 171.983398,13.5263672 C171.856445,13.6663411 171.714844,13.7851562 171.558594,13.8828125 C171.272135,14.0260417 170.765951,14.15625 170.040039,14.2734375 C169.314128,14.390625 168.365234,14.4915365 167.193359,14.5761719 C167.141276,14.5826823 167.095703,14.6038411 167.056641,14.6396484 C167.017578,14.6754557 166.991536,14.719401 166.978516,14.7714844 L166.978516,14.7714844 L166.548828,17.3203125 C166.535807,17.3984375 166.555339,17.4651693 166.607422,17.5205078 C166.659505,17.5758464 166.727865,17.6002604 166.8125,17.59375 Z M174.683594,14.1367188 C174.94401,13.8763021 175.207682,13.6240234 175.474609,13.3798828 C175.741536,13.1357422 176.03125,12.9290365 176.34375,12.7597656 C176.473958,12.6946615 176.610677,12.6621094 176.753906,12.6621094 C176.80599,12.6621094 176.856445,12.6653646 176.905273,12.671875 C176.954102,12.6783854 177.004557,12.688151 177.056641,12.7011719 C177.304036,12.7792969 177.473307,12.8932292 177.564453,13.0429688 C177.597005,13.1210938 177.619792,13.1861979 177.632812,13.2382812 L177.632812,13.2382812 L177.632812,13.2480469 C177.203125,13.4563802 176.740885,13.6289062 176.246094,13.765625 C175.751302,13.9023438 175.230469,14.0260417 174.683594,14.1367188 Z M163.53125,18.0527344 C163.700521,18.0527344 163.894206,18.0364583 164.112305,18.0039062 C164.330404,17.9713542 164.553385,17.9257812 164.78125,17.8671875 C165.074219,17.7890625 165.337891,17.7174479 165.572266,17.6523438 C165.806641,17.5872396 166.008464,17.5286458 166.177734,17.4765625 C166.216797,17.6067708 166.307943,17.6816406 166.451172,17.7011719 C166.679036,17.7011719 166.845052,17.6067708 166.949219,17.4179688 C167.098958,17.125 167.248698,16.8304036 167.398438,16.5341797 C167.548177,16.2379557 167.697917,15.936849 167.847656,15.6308594 C167.990885,15.3313802 168.117839,15.0481771 168.228516,14.78125 C168.339193,14.5143229 168.430339,14.2734375 168.501953,14.0585938 C168.514974,14.0390625 168.521484,14.0032552 168.521484,13.9511719 C168.521484,13.8990885 168.52474,13.8372396 168.53125,13.765625 C168.53125,13.6354167 168.513346,13.5442708 168.477539,13.4921875 C168.441732,13.4401042 168.36849,13.4140625 168.257812,13.4140625 C168.238281,13.4140625 168.199219,13.4303385 168.140625,13.4628906 C168.082031,13.4954427 168.026693,13.5540365 167.974609,13.6386719 C167.82487,14.0097656 167.583984,14.2832031 167.251953,14.4589844 C167.115234,14.530599 166.915039,14.6070964 166.651367,14.6884766 C166.387695,14.7698568 166.054036,14.8496094 165.650391,14.9277344 C165.409505,14.9798177 165.188151,15.0188802 164.986328,15.0449219 C164.784505,15.0709635 164.589193,15.0839844 164.400391,15.0839844 C164.270182,15.0839844 164.15625,15.077474 164.058594,15.0644531 C163.960938,15.0514323 163.866536,15.0351562 163.775391,15.015625 C163.60612,14.9765625 163.492188,14.859375 163.433594,14.6640625 C163.348958,14.4492188 163.306641,14.2115885 163.306641,13.9511719 L163.306641,13.9511719 L163.306641,13.8925781 C163.306641,13.6972656 163.21875,13.5996094 163.042969,13.5996094 C162.971354,13.5996094 162.889974,13.6386719 162.798828,13.7167969 C162.564453,13.9902344 162.367513,14.3108724 162.208008,14.6787109 C162.048503,15.0465495 161.929688,15.4518229 161.851562,15.8945312 C161.838542,15.9661458 161.828776,16.0442708 161.822266,16.1289062 C161.815755,16.2135417 161.8125,16.2916667 161.8125,16.3632812 C161.8125,17.0924479 162.11849,17.6035156 162.730469,17.8964844 C162.958333,18.000651 163.22526,18.0527344 163.53125,18.0527344 Z M166.8125,12.0224609 C166.877604,12.0192057 166.932943,11.9915365 166.978516,11.9394531 L166.978516,11.9394531 L167.759766,10.9628906 C168.020182,10.6373698 168.283854,10.3085938 168.550781,9.9765625 C168.583333,9.92447917 168.596354,9.87076823 168.589844,9.81542969 C168.583333,9.76009115 168.560547,9.70963542 168.521484,9.6640625 L168.521484,9.6640625 L167.183594,8.40429688 C167.13151,8.35872396 167.071289,8.33919271 167.00293,8.34570312 C166.93457,8.35221354 166.877604,8.38151042 166.832031,8.43359375 C166.721354,8.58333333 166.609049,8.7265625 166.495117,8.86328125 C166.381185,9 166.26888,9.13997396 166.158203,9.28320312 C166.008464,9.46549479 165.860352,9.64941406 165.713867,9.83496094 C165.567383,10.0205078 165.419271,10.2076823 165.269531,10.3964844 C165.230469,10.4420573 165.214193,10.492513 165.220703,10.5478516 C165.227214,10.6031901 165.253255,10.6536458 165.298828,10.6992188 L165.298828,10.6992188 L166.636719,11.9589844 C166.688802,12.0045573 166.747396,12.0257161 166.8125,12.0224609 Z M159.703125,18.9902344 C159.77474,18.9902344 159.844727,18.9886068 159.913086,18.9853516 C159.981445,18.9820964 160.048177,18.9772135 160.113281,18.9707031 C160.425781,18.9186198 160.715495,18.7998047 160.982422,18.6142578 C161.249349,18.4287109 161.496745,18.1601562 161.724609,17.8085938 C161.867839,17.5807292 162.019206,17.3610026 162.178711,17.1494141 C162.338216,16.9378255 162.51237,16.7604167 162.701172,16.6171875 C162.792318,16.578125 162.86556,16.5227865 162.920898,16.4511719 C162.976237,16.3795573 163.020182,16.2884115 163.052734,16.1777344 C163.078776,16.093099 163.091797,16.0084635 163.091797,15.9238281 C163.091797,15.6373698 162.951823,15.4550781 162.671875,15.3769531 L162.671875,15.3769531 L162.681641,15.3769531 C162.649089,15.3639323 162.60026,15.3574219 162.535156,15.3574219 C162.372396,15.3574219 162.229167,15.4160156 162.105469,15.5332031 C161.871094,15.7480469 161.597656,15.8847656 161.285156,15.9433594 C160.822917,16.014974 160.337891,16.0817057 159.830078,16.1435547 C159.322266,16.2054036 158.833984,16.2526042 158.365234,16.2851562 C157.889974,16.3177083 157.39681,16.3714193 156.885742,16.4462891 C156.374674,16.5211589 155.894531,16.6139323 155.445312,16.7246094 C155.334635,16.7571615 155.246745,16.8027344 155.181641,16.8613281 C155.116536,16.9199219 155.083984,16.9980469 155.083984,17.0957031 C155.083984,17.1998698 155.123047,17.2910156 155.201172,17.3691406 C155.370443,17.5188802 155.878255,17.7760417 156.724609,18.140625 C157.154297,18.3164062 157.496094,18.4547526 157.75,18.5556641 C158.003906,18.6565755 158.179688,18.7233073 158.277344,18.7558594 C158.785156,18.9121094 159.260417,18.9902344 159.703125,18.9902344 Z M148.150391,19 C148.469401,19 148.778646,18.9869792 149.078125,18.9609375 C149.377604,18.9348958 149.673828,18.8958333 149.966797,18.84375 L149.966797,18.84375 L149.976562,18.84375 C150.888021,18.6549479 151.740885,18.2122396 152.535156,17.515625 C152.932292,17.1705729 153.290365,16.7945964 153.609375,16.3876953 C153.928385,15.9807943 154.205078,15.5625 154.439453,15.1328125 C154.667318,14.6835938 154.847982,14.2246094 154.981445,13.7558594 C155.114909,13.2871094 155.188151,12.8183594 155.201172,12.3496094 L155.201172,12.3496094 L155.201172,12.2128906 C155.201172,11.3014323 154.878906,10.5169271 154.234375,9.859375 C154.16276,9.78776042 154.078125,9.72428385 153.980469,9.66894531 C153.882812,9.61360677 153.772135,9.55989583 153.648438,9.5078125 L153.648438,9.5078125 L153.658203,9.5078125 C153.60612,9.48177083 153.557292,9.46549479 153.511719,9.45898438 C153.466146,9.45247396 153.417318,9.44921875 153.365234,9.44921875 C153.169922,9.44921875 152.994141,9.53059896 152.837891,9.69335938 C152.51237,10.0579427 152.248698,10.4778646 152.046875,10.953125 C151.949219,11.1744792 151.851562,11.3893229 151.753906,11.5976562 C151.65625,11.8059896 151.552083,12.0143229 151.441406,12.2226562 C151.304688,12.4895833 151.236328,12.7402344 151.236328,12.9746094 C151.236328,13.1113281 151.259115,13.2366536 151.304688,13.3505859 C151.35026,13.4645182 151.41862,13.5735677 151.509766,13.6777344 L151.509766,13.6777344 L151.509766,13.6679688 C151.711589,13.9088542 152.027344,14.0455729 152.457031,14.078125 C152.496094,14.0846354 152.543294,14.0895182 152.598633,14.0927734 C152.653971,14.0960286 152.707682,14.0976562 152.759766,14.0976562 C152.863932,14.0976562 152.963216,14.094401 153.057617,14.0878906 C153.152018,14.0813802 153.248047,14.0683594 153.345703,14.0488281 C153.358724,14.0748698 153.370117,14.1009115 153.379883,14.1269531 C153.389648,14.1529948 153.397786,14.1822917 153.404297,14.2148438 L153.404297,14.2148438 L153.394531,14.1855469 C153.394531,14.2115885 153.396159,14.2327474 153.399414,14.2490234 C153.402669,14.2652995 153.404297,14.2799479 153.404297,14.2929688 C153.404297,14.3125 153.407552,14.3255208 153.414062,14.3320312 L153.414062,14.3320312 L153.414062,14.3613281 C153.22526,14.5696615 153.016927,14.7535807 152.789062,14.9130859 C152.561198,15.0725911 152.313802,15.2044271 152.046875,15.3085938 C151.486979,15.5364583 150.928711,15.7610677 150.37207,15.9824219 C149.81543,16.203776 149.253906,16.421875 148.6875,16.6367188 C148.114583,16.8580729 147.55957,17.0924479 147.022461,17.3398438 C146.485352,17.5872396 145.959635,17.8541667 145.445312,18.140625 C145.321615,18.2252604 145.259766,18.3424479 145.259766,18.4921875 C145.259766,18.7135417 145.363932,18.8307292 145.572266,18.84375 C145.923828,18.8763021 146.283529,18.905599 146.651367,18.9316406 C147.019206,18.9576823 147.382161,18.9772135 147.740234,18.9902344 C147.811849,18.9967448 147.881836,19 147.950195,19 L147.950195,19 L148.150391,19 Z M140.953125,17.28125 C141.291667,17.28125 141.643229,17.2356771 142.007812,17.1445312 C142.372396,17.0533854 142.75,16.9134115 143.140625,16.7246094 C144.039062,16.2753906 144.784505,15.624349 145.376953,14.7714844 C146.041016,13.8079427 146.552083,12.5026042 146.910156,10.8554688 C146.96224,10.6145833 147.001302,10.3850911 147.027344,10.1669922 C147.053385,9.94889323 147.066406,9.7421875 147.066406,9.546875 C147.066406,9.00651042 146.978516,8.51497396 146.802734,8.07226562 C146.626953,7.62955729 146.366536,7.22916667 146.021484,6.87109375 C145.936849,6.79947917 145.847331,6.7360026 145.75293,6.68066406 C145.658529,6.62532552 145.552734,6.57161458 145.435547,6.51953125 C145.272786,6.45442708 145.124674,6.44140625 144.991211,6.48046875 C144.857747,6.51953125 144.735677,6.59765625 144.625,6.71484375 C144.46875,6.890625 144.323893,7.0859375 144.19043,7.30078125 C144.056966,7.515625 143.934896,7.73697917 143.824219,7.96484375 C143.726562,8.19270833 143.630534,8.4124349 143.536133,8.62402344 C143.441732,8.83561198 143.342448,9.04557292 143.238281,9.25390625 L143.238281,9.25390625 C143.088542,9.52734375 143.013672,9.77148438 143.013672,9.98632812 C143.013672,10.1230469 143.036458,10.2483724 143.082031,10.3623047 C143.127604,10.476237 143.195964,10.5885417 143.287109,10.6992188 L143.287109,10.6992188 L143.287109,10.6894531 C143.501953,10.9303385 143.814453,11.0670573 144.224609,11.0996094 C144.270182,11.1061198 144.31901,11.109375 144.371094,11.109375 L144.371094,11.109375 L144.517578,11.109375 C144.725911,11.109375 144.934245,11.0898438 145.142578,11.0507812 C145.17513,11.1289062 145.197917,11.2151693 145.210938,11.3095703 C145.223958,11.4039714 145.236979,11.5130208 145.25,11.6367188 C145.263021,11.8059896 145.274414,11.9557292 145.28418,12.0859375 C145.293945,12.2161458 145.298828,12.343099 145.298828,12.4667969 C144.960286,12.7532552 144.494792,13.0527344 143.902344,13.3652344 C143.270833,13.6972656 142.629557,13.9251302 141.978516,14.0488281 C141.73112,14.0878906 141.50651,14.1074219 141.304688,14.1074219 C141.135417,14.1074219 140.971029,14.094401 140.811523,14.0683594 C140.652018,14.0423177 140.497396,13.9967448 140.347656,13.9316406 C139.904948,13.749349 139.657552,13.3098958 139.605469,12.6132812 C139.592448,12.5286458 139.585938,12.4488932 139.585938,12.3740234 L139.585938,12.3740234 L139.585938,12.1445312 C139.585938,11.9817708 139.594076,11.8141276 139.610352,11.6416016 C139.626628,11.4690755 139.651042,11.2851562 139.683594,11.0898438 L139.683594,11.0898438 L139.673828,11.0898438 C139.738932,10.796875 139.78776,10.5218099 139.820312,10.2646484 C139.852865,10.007487 139.875651,9.77148438 139.888672,9.55664062 C139.888672,9.15299479 139.680339,8.97395833 139.263672,9.01953125 C138.645182,9.1171875 138.109701,9.29622396 137.657227,9.55664062 C137.204753,9.81705729 136.789714,10.1165365 136.412109,10.4550781 C136.210286,10.936849 136.029622,11.4153646 135.870117,11.890625 C135.710612,12.3658854 135.55599,12.8411458 135.40625,13.3164062 C135.386719,13.375 135.389974,13.4303385 135.416016,13.4824219 C135.442057,13.5345052 135.479492,13.5719401 135.52832,13.5947266 C135.577148,13.617513 135.627604,13.625651 135.679687,13.6191406 C135.731771,13.6126302 135.777344,13.5833333 135.816406,13.53125 C136.454427,12.6783854 137.300781,12.1640625 138.355469,11.9882812 L138.355469,11.9882812 L138.394531,12.1933594 C138.394531,12.3365885 138.384766,12.5091146 138.365234,12.7109375 C138.345703,12.9127604 138.319661,13.0917969 138.287109,13.2480469 C138.208984,13.671224 138.169922,14.0683594 138.169922,14.4394531 C138.169922,15.1621094 138.332682,15.7415365 138.658203,16.1777344 C138.905599,16.4967448 139.19694,16.7490234 139.532227,16.9345703 C139.867513,17.1201172 140.230469,17.2324219 140.621094,17.2714844 C140.673177,17.2779948 140.728516,17.28125 140.787109,17.28125 L140.787109,17.28125 L140.953125,17.28125 Z" id="الصندوق-"></path>
            <path d="M130.091797,18.2167969 C130.195964,18.2428385 130.280599,18.203776 130.345703,18.0996094 L130.345703,18.0996094 L131.820312,15.7753906 L131.263672,7.484375 C131.257161,7.42578125 131.23763,7.37858073 131.205078,7.34277344 C131.172526,7.30696615 131.133464,7.28417969 131.087891,7.27441406 C131.042318,7.26464844 130.995117,7.26790365 130.946289,7.28417969 C130.897461,7.30045573 130.856771,7.33463542 130.824219,7.38671875 L130.824219,7.38671875 L129.359375,9.7109375 L129.916016,18.0019531 C129.929036,18.1191406 129.98763,18.1907552 130.091797,18.2167969 Z M114.90625,21 C114.932292,21 114.951823,20.9967448 114.964844,20.9902344 L114.964844,20.9902344 L115.511719,20.9609375 C116.078125,20.9479167 116.636393,20.9283854 117.186523,20.9023438 C117.736654,20.8763021 118.285156,20.84375 118.832031,20.8046875 C119.385417,20.7591146 119.909505,20.6826172 120.404297,20.5751953 C120.899089,20.4677734 121.367839,20.3294271 121.810547,20.1601562 C122.656901,19.828125 123.42513,19.4049479 124.115234,18.890625 C124.805339,18.3763021 125.410807,17.7740885 125.931641,17.0839844 C126.999349,15.6647135 127.552734,14.030599 127.591797,12.1816406 L127.591797,12.1816406 L127.591797,12.1425781 C127.520182,11.6152344 127.433919,11.1025391 127.333008,10.6044922 C127.232096,10.1064453 127.119792,9.61002604 126.996094,9.11523438 C126.963542,9.00455729 126.893555,8.94433594 126.786133,8.93457031 C126.678711,8.92480469 126.598958,8.97526042 126.546875,9.0859375 C126.442708,9.32682292 126.336914,9.55957031 126.229492,9.78417969 C126.12207,10.0087891 126.009766,10.2382812 125.892578,10.4726562 L125.892578,10.4726562 L125.404297,11.4882812 C125.501953,12.0416667 125.594727,12.6064453 125.682617,13.1826172 C125.770508,13.7587891 125.85026,14.3268229 125.921875,14.8867188 C125.908854,14.8997396 125.886068,14.922526 125.853516,14.9550781 C125.820964,14.9876302 125.778646,15.0234375 125.726562,15.0625 C125.173177,15.5507812 124.55957,15.9707031 123.885742,16.3222656 C123.211914,16.6738281 122.520182,17.0058594 121.810547,17.3183594 L121.810547,17.3183594 L121.400391,17.5234375 L121.400391,17.5136719 L117.240234,19.3300781 L117.25,19.3300781 C117.10026,19.3951823 116.94401,19.4570312 116.78125,19.515625 C116.61849,19.5742188 116.458984,19.6360677 116.302734,19.7011719 C116.016276,19.8053385 115.731445,19.9111328 115.448242,20.0185547 C115.165039,20.1259766 114.89974,20.2382812 114.652344,20.3554688 C114.561198,20.4205729 114.497721,20.4824219 114.461914,20.5410156 C114.426107,20.5996094 114.408203,20.6516927 114.408203,20.6972656 C114.408203,20.8990885 114.551432,21 114.837891,21 L114.837891,21 L114.90625,21 Z M121.449219,18.1044922 C121.494792,18.1142578 121.541992,18.109375 121.59082,18.0898438 C121.639648,18.0703125 121.680339,18.0345052 121.712891,17.9824219 L121.712891,17.9824219 L123.03125,15.7460938 C122.979167,15.1015625 122.91569,14.4472656 122.84082,13.7832031 C122.765951,13.1191406 122.682943,12.4811198 122.591797,11.8691406 C122.546224,11.5175781 122.500651,11.164388 122.455078,10.8095703 C122.409505,10.4547526 122.363932,10.0950521 122.318359,9.73046875 C122.311849,9.671875 122.29069,9.62467448 122.254883,9.58886719 C122.219076,9.5530599 122.178385,9.53027344 122.132812,9.52050781 C122.08724,9.51074219 122.040039,9.515625 121.991211,9.53515625 C121.942383,9.5546875 121.904948,9.59049479 121.878906,9.64257812 L121.878906,9.64257812 L120.589844,12.0351562 L121.263672,17.8945312 C121.270182,17.953125 121.291341,18.0003255 121.327148,18.0361328 C121.362956,18.0719401 121.403646,18.0947266 121.449219,18.1044922 Z M107.054688,14.2910156 C107.074219,14.2910156 107.10026,14.2845052 107.132812,14.2714844 C107.393229,14.1933594 107.552734,13.985026 107.611328,13.6464844 C107.630859,13.561849 107.647135,13.4869792 107.660156,13.421875 C107.673177,13.3567708 107.689453,13.2981771 107.708984,13.2460938 C108.223307,13.1158854 108.698568,13.0003255 109.134766,12.8994141 C109.570964,12.7985026 110.007161,12.6992188 110.443359,12.6015625 C110.91862,12.4908854 111.385742,12.3769531 111.844727,12.2597656 C112.303711,12.1425781 112.751302,12.015625 113.1875,11.8789062 C113.200521,11.8723958 113.223307,11.8528646 113.255859,11.8203125 C113.288411,11.7877604 113.311198,11.7617188 113.324219,11.7421875 L113.324219,11.7421875 L114.564453,9.0859375 C114.583984,9.03385417 114.588867,8.98339844 114.579102,8.93457031 C114.569336,8.88574219 114.548177,8.84505208 114.515625,8.8125 C114.483073,8.77994792 114.442383,8.75878906 114.393555,8.74902344 C114.344727,8.73925781 114.294271,8.74739583 114.242188,8.7734375 C114.098958,8.84505208 113.965495,8.88085938 113.841797,8.88085938 C113.692057,8.88085938 113.561849,8.82226562 113.451172,8.70507812 C113.373047,8.45117188 113.286784,8.20865885 113.192383,7.97753906 C113.097982,7.74641927 112.987305,7.53157552 112.860352,7.33300781 C112.733398,7.1344401 112.590169,6.95703125 112.430664,6.80078125 C112.271159,6.64453125 112.090495,6.51757812 111.888672,6.41992188 C111.641276,6.30273438 111.406901,6.24414062 111.185547,6.24414062 C110.886068,6.24414062 110.60612,6.33203125 110.345703,6.5078125 C110.124349,6.65755208 109.914388,6.83333333 109.71582,7.03515625 C109.517253,7.23697917 109.333333,7.47135417 109.164062,7.73828125 C108.994792,7.98567708 108.838542,8.24446615 108.695312,8.51464844 C108.552083,8.78483073 108.41862,9.06640625 108.294922,9.359375 C108.190755,9.60026042 108.096354,9.82486979 108.011719,10.0332031 C107.927083,10.2415365 107.855469,10.4238281 107.796875,10.5800781 C107.223958,10.6842448 106.673828,10.7851562 106.146484,10.8828125 L105.611545,10.9804688 C105.249855,11.0455729 104.878038,11.1106771 104.496094,11.1757812 L104.496094,11.1757812 L104.535156,11.1757812 L104.496094,11.1855469 C104.44401,11.1855469 104.393555,11.2067057 104.344727,11.2490234 C104.295898,11.2913411 104.264974,11.3385417 104.251953,11.390625 L104.251953,11.390625 L103.832031,13.7734375 C103.81901,13.8580729 103.841797,13.9280599 103.900391,13.9833984 C103.958984,14.038737 104.030599,14.0598958 104.115234,14.046875 C104.180339,14.0338542 104.352865,13.9947917 104.632812,13.9296875 C104.91276,13.8645833 105.153646,13.8141276 105.355469,13.7783203 C105.557292,13.742513 105.76237,13.7050781 105.970703,13.6660156 C105.996745,13.6660156 106.029297,13.6529948 106.068359,13.6269531 L106.068359,13.6269531 L106.400391,13.5683594 C106.511068,13.5488281 106.61849,13.5260417 106.722656,13.5 L106.722656,13.5 L106.654297,13.8222656 L106.654297,13.7929688 C106.641276,13.8255208 106.634766,13.8531901 106.634766,13.8759766 L106.634766,13.8759766 L106.634766,13.9296875 C106.634766,14.1705729 106.755208,14.2910156 106.996094,14.2910156 L106.996094,14.2910156 L107.054688,14.2910156 Z M108.832031,10.4433594 C108.929688,10.2089844 109.040365,9.9827474 109.164062,9.76464844 C109.28776,9.54654948 109.44401,9.35286458 109.632812,9.18359375 C109.769531,9.06640625 109.89974,9.0078125 110.023438,9.0078125 C110.147135,9.0078125 110.287109,9.06640625 110.443359,9.18359375 L110.443359,9.18359375 L110.433594,9.18359375 C110.550781,9.28125 110.658203,9.3968099 110.755859,9.53027344 C110.853516,9.66373698 110.944661,9.82486979 111.029297,10.0136719 L111.029297,10.0136719 L108.832031,10.4433594 Z M109.212891,18.5927734 C109.277995,18.5895182 109.333333,18.561849 109.378906,18.5097656 L109.378906,18.5097656 L110.160156,17.5332031 C110.420573,17.2076823 110.684245,16.8789062 110.951172,16.546875 C110.983724,16.4947917 110.996745,16.4410807 110.990234,16.3857422 C110.983724,16.3304036 110.960938,16.2799479 110.921875,16.234375 L110.921875,16.234375 L109.583984,14.9746094 C109.531901,14.9290365 109.47168,14.9095052 109.40332,14.9160156 C109.334961,14.922526 109.277995,14.9518229 109.232422,15.0039062 C109.121745,15.1536458 109.00944,15.296875 108.895508,15.4335938 C108.781576,15.5703125 108.669271,15.7102865 108.558594,15.8535156 C108.408854,16.0358073 108.260742,16.2197266 108.114258,16.4052734 C107.967773,16.5908203 107.819661,16.7779948 107.669922,16.9667969 C107.630859,17.0123698 107.614583,17.0628255 107.621094,17.1181641 C107.627604,17.1735026 107.653646,17.2239583 107.699219,17.2695312 L107.699219,17.2695312 L109.037109,18.5292969 C109.089193,18.5748698 109.147786,18.5960286 109.212891,18.5927734 Z M98.8417969,15.8925781 C98.8873698,15.905599 98.9345703,15.9007161 98.9833984,15.8779297 C99.0322266,15.8551432 99.0664062,15.827474 99.0859375,15.7949219 C99.4505208,15.280599 99.889974,14.7597656 100.404297,14.2324219 C100.879557,13.7311198 101.406901,13.3763021 101.986328,13.1679688 L101.986328,13.1679688 L101.976562,13.1777344 C102.041667,13.1582031 102.098633,13.1419271 102.147461,13.1289062 C102.196289,13.1158854 102.24349,13.109375 102.289062,13.109375 C102.523438,13.109375 102.71875,13.2721354 102.875,13.5976562 L102.875,13.5976562 L102.865234,13.5585938 C102.930339,13.7734375 103.03776,13.9296875 103.1875,14.0273438 C103.33724,14.125 103.535807,14.1705729 103.783203,14.1640625 L103.783203,14.1640625 L103.910156,14.1347656 L104.144531,14.0761719 C104.170573,14.0696615 104.201497,14.0517578 104.237305,14.0224609 C104.273112,13.9931641 104.297526,13.9654948 104.310547,13.9394531 L104.310547,13.9394531 L105.521484,11.3417969 C105.560547,11.250651 105.554036,11.1692708 105.501953,11.0976562 C105.44987,11.0260417 105.371745,10.9967448 105.267578,11.0097656 L105.267578,11.0097656 L104.681641,11.1074219 C104.492839,10.8795573 104.294271,10.6972656 104.085938,10.5605469 C103.877604,10.4238281 103.666016,10.3261719 103.451172,10.2675781 C103.379557,10.2480469 103.311198,10.235026 103.246094,10.2285156 C103.18099,10.2220052 103.115885,10.21875 103.050781,10.21875 C102.692708,10.21875 102.337891,10.313151 101.986328,10.5019531 C101.634766,10.6907552 101.296224,10.9414062 100.970703,11.2539062 C100.554036,11.6445312 100.147135,12.1165365 99.75,12.6699219 C99.3854167,13.171224 99.0598958,13.672526 98.7734375,14.1738281 C98.6236979,14.4342448 98.4934896,14.6669922 98.3828125,14.8720703 C98.2721354,15.0771484 98.1809896,15.2545573 98.109375,15.4042969 C98.0768229,15.4759115 98.0768229,15.5442708 98.109375,15.609375 C98.1419271,15.6744792 98.1940104,15.7167969 98.265625,15.7363281 L98.265625,15.7363281 L98.8417969,15.8925781 Z M100.301453,8.07611084 L100.375,8.0703125 L102.064453,7.7578125 L104.037109,7.38671875 C104.056641,7.38020833 104.08431,7.36393229 104.120117,7.33789062 C104.155924,7.31184896 104.180339,7.28580729 104.193359,7.25976562 L104.193359,7.25976562 L105.335938,4.984375 C105.388021,4.89322917 105.384766,4.81022135 105.326172,4.73535156 C105.267578,4.66048177 105.186198,4.6328125 105.082031,4.65234375 C104.522135,4.76302083 103.941081,4.87532552 103.338867,4.98925781 C102.736654,5.1031901 102.10026,5.21875 101.429688,5.3359375 C101.397135,5.34244792 101.362956,5.35872396 101.327148,5.38476562 C101.291341,5.41080729 101.266927,5.43684896 101.253906,5.46289062 L101.253906,5.46289062 L100.121094,7.73828125 C100.075521,7.82942708 100.080404,7.9124349 100.135742,7.98730469 C100.191081,8.06217448 100.270833,8.08984375 100.375,8.0703125 L100.301453,8.07611084 Z M93.5228882,21.0079901 L93.5878906,21 L94.359375,20.8144531 C94.6914062,20.7298177 95.0218099,20.6484375 95.3505859,20.5703125 C95.679362,20.4921875 96,20.4075521 96.3125,20.3164062 C96.625,20.2317708 96.9440104,20.124349 97.2695312,19.9941406 C97.5950521,19.8639323 97.9270833,19.7141927 98.265625,19.5449219 C98.65625,19.3561198 99.0078125,19.1477865 99.3203125,18.9199219 C99.6328125,18.6920573 99.8867188,18.4576823 100.082031,18.2167969 C100.407552,17.813151 100.645182,17.4746094 100.794922,17.2011719 L100.794922,17.2011719 C100.957682,16.9082031 101.117188,16.3776042 101.273438,15.609375 C101.345052,15.2838542 101.297852,15.0348307 101.131836,14.8623047 C100.96582,14.6897786 100.69401,14.5904948 100.316406,14.5644531 C100.238281,14.5579427 100.161784,14.5546875 100.086914,14.5546875 L100.086914,14.5546875 L99.8671875,14.5546875 C99.4830729,14.5546875 99.1901042,14.5839844 98.9882812,14.6425781 C98.7799479,14.655599 98.578125,14.7711589 98.3828125,14.9892578 C98.1875,15.2073568 98.0052083,15.4954427 97.8359375,15.8535156 L97.8359375,15.8535156 L97.1523438,17.3964844 C96.6380208,17.5527344 96.1155599,17.6829427 95.5849609,17.7871094 C95.054362,17.891276 94.5058594,17.9791667 93.9394531,18.0507812 C93.8938802,18.0572917 93.8515625,18.0784505 93.8125,18.1142578 C93.7734375,18.1500651 93.7473958,18.1940104 93.734375,18.2460938 L93.734375,18.2460938 L93.3046875,20.7363281 C93.2916667,20.827474 93.3128255,20.8990885 93.3681641,20.9511719 C93.4235026,21.0032552 93.4967448,21.0195312 93.5878906,21 L93.5228882,21.0079901 Z M93.4755859,21.0048828 C93.5244141,21.0146484 93.5716146,21.0097656 93.6171875,20.9902344 C93.6627604,20.9707031 93.7018229,20.9316406 93.734375,20.8730469 L93.734375,20.8730469 L94.9648438,18.5292969 L94.2226562,7.46484375 C94.2161458,7.40625 94.194987,7.35904948 94.1591797,7.32324219 C94.1233724,7.2874349 94.0826823,7.26464844 94.0371094,7.25488281 C93.9915365,7.24511719 93.9443359,7.25 93.8955078,7.26953125 C93.8466797,7.2890625 93.8092448,7.32486979 93.7832031,7.37695312 L93.7832031,7.37695312 L92.5234375,9.70117188 L93.2949219,20.7851562 C93.2949219,20.84375 93.3128255,20.8925781 93.3486328,20.9316406 C93.3844401,20.9707031 93.4267578,20.9951172 93.4755859,21.0048828 Z M82.0253906,13.7099609 C82.0970052,13.7067057 82.155599,13.672526 82.2011719,13.6074219 C82.4550781,13.2688802 82.7594401,12.9905599 83.1142578,12.7724609 C83.4690755,12.554362 83.8580729,12.3541667 84.28125,12.171875 C84.3138021,12.1588542 84.4000651,12.1279297 84.5400391,12.0791016 C84.680013,12.0302734 84.8834635,11.9602865 85.1503906,11.8691406 L85.1503906,11.8691406 L86.8984375,11.2734375 L88.6855469,10.6484375 C88.9654948,10.5507812 89.1917318,10.4661458 89.3642578,10.3945312 C89.5367839,10.3229167 89.6588542,10.2675781 89.7304688,10.2285156 L89.7304688,10.2285156 L89.8378906,10.1113281 L89.9648438,9.81835938 L90.0429688,9.66210938 L90.0332031,9.69140625 C90.1048177,9.56119792 90.1715495,9.42610677 90.2333984,9.28613281 C90.2952474,9.14615885 90.3619792,9.00130208 90.4335938,8.8515625 C90.4921875,8.70182292 90.5491536,8.56022135 90.6044922,8.42675781 C90.6598307,8.29329427 90.7070312,8.17122396 90.7460938,8.06054688 C90.8372396,7.80013021 90.851888,7.62272135 90.7900391,7.52832031 C90.7281901,7.43391927 90.6028646,7.41601562 90.4140625,7.47460938 C90.1796875,7.56575521 89.9485677,7.66341146 89.7207031,7.76757812 C89.4928385,7.87174479 89.2714844,7.97916667 89.0566406,8.08984375 C88.6790365,8.27213542 88.2298177,8.37955729 87.7089844,8.41210938 C87.4746094,8.19726562 87.2613932,7.9514974 87.0693359,7.67480469 C86.8772786,7.39811198 86.7356771,7.08723958 86.6445312,6.7421875 C87.1914062,6.81380208 87.7447917,6.93424479 88.3046875,7.10351562 C88.3697917,7.11653646 88.430013,7.11002604 88.4853516,7.08398438 C88.5406901,7.05794271 88.578125,7.01236979 88.5976562,6.94726562 L88.5976562,6.94726562 L89.4082031,4.44726562 C89.4342448,4.37565104 89.4277344,4.30891927 89.3886719,4.24707031 C89.3496094,4.18522135 89.2942708,4.14778646 89.2226562,4.13476562 C89.1705729,4.12174479 89.1152344,4.10872396 89.0566406,4.09570312 C88.9980469,4.08268229 88.9427083,4.06966146 88.890625,4.05664062 L88.890625,4.05664062 L88.9101562,4.06640625 C88.6432292,4.0078125 88.3844401,3.95084635 88.1337891,3.89550781 C87.883138,3.84016927 87.6113281,3.80924479 87.3183594,3.80273438 C86.8235677,3.80273438 86.3808594,4.04036458 85.9902344,4.515625 C85.8144531,4.73046875 85.6549479,4.97298177 85.5117188,5.24316406 C85.3684896,5.51334635 85.2447917,5.79492188 85.140625,6.08789062 C85.0364583,6.38085938 84.9583333,6.68359375 84.90625,6.99609375 C84.8541667,7.30859375 84.8216146,7.62760417 84.8085938,7.953125 C84.8020833,8.22005208 84.8167318,8.4625651 84.8525391,8.68066406 C84.8883464,8.89876302 84.9518229,9.10221354 85.0429688,9.29101562 C84.5351562,9.44726562 84.1022135,9.64257812 83.7441406,9.87695312 C83.3860677,10.1113281 83.0800781,10.3880208 82.8261719,10.7070312 C82.5657552,11.0390625 82.3216146,11.3971354 82.09375,11.78125 C81.8658854,12.1653646 81.6510417,12.5755208 81.4492188,13.0117188 C81.4296875,13.0507812 81.4248047,13.0979818 81.4345703,13.1533203 C81.4443359,13.2086589 81.4654948,13.2526042 81.4980469,13.2851562 L81.4980469,13.2851562 L81.8398438,13.6367188 C81.8919271,13.6888021 81.953776,13.7132161 82.0253906,13.7099609 Z M77.5332031,21.0097656 C77.7871094,21.0097656 78.0377604,20.9902344 78.2851562,20.9511719 C78.7604167,20.8795573 79.2486979,20.7672526 79.75,20.6142578 C80.2513021,20.461263 80.7428385,20.2643229 81.2246094,20.0234375 C81.7128906,19.7890625 82.1783854,19.5286458 82.6210938,19.2421875 C83.0638021,18.9557292 83.4902344,18.6464844 83.9003906,18.3144531 C84.3105469,17.9759115 84.671875,17.6373698 84.984375,17.2988281 C85.296875,16.9602865 85.5572917,16.6347656 85.765625,16.3222656 C86.0911458,15.8079427 86.2539062,15.3554688 86.2539062,14.9648438 C86.2539062,14.6067708 86.1302083,14.2942708 85.8828125,14.0273438 C85.7721354,13.9166667 85.6484375,13.8271484 85.5117188,13.7587891 C85.375,13.6904297 85.2220052,13.6432292 85.0527344,13.6171875 L85.0527344,13.6171875 L85.0625,13.6171875 C84.8997396,13.5911458 84.7516276,13.5651042 84.6181641,13.5390625 C84.4847005,13.5130208 84.3626302,13.483724 84.2519531,13.4511719 C83.8352865,13.3404948 83.4479167,13.1614583 83.0898438,12.9140625 C82.7382812,12.6731771 82.4973958,12.3541667 82.3671875,11.9570312 C82.3346354,11.8528646 82.2679036,11.7958984 82.1669922,11.7861328 C82.0660807,11.7763672 81.9895833,11.8170573 81.9375,11.9082031 C81.7877604,12.1686198 81.6526693,12.4290365 81.5322266,12.6894531 C81.4117839,12.9498698 81.2994792,13.2167969 81.1953125,13.4902344 C81.1302083,13.6790365 81.0813802,13.8499349 81.0488281,14.0029297 C81.016276,14.1559245 81,14.3072917 81,14.4570312 C81,14.6132812 81.0195312,14.7532552 81.0585938,14.8769531 C81.2278646,15.4628906 81.6152344,15.8893229 82.2207031,16.15625 C82.4095052,16.2408854 82.6031901,16.3108724 82.8017578,16.3662109 C83.0003255,16.4215495 83.2070312,16.4720052 83.421875,16.5175781 C82.3541667,17.110026 81.1985677,17.5201823 79.9550781,17.7480469 C79.7207031,17.7936198 79.4781901,17.8277995 79.2275391,17.8505859 C78.976888,17.8733724 78.7278646,17.8847656 78.4804688,17.8847656 C78.3893229,17.8847656 78.2884115,17.883138 78.1777344,17.8798828 C78.0670573,17.8766276 77.9628906,17.8717448 77.8652344,17.8652344 C77.5136719,17.8391927 77.1979167,17.7822266 76.9179688,17.6943359 C76.6380208,17.6064453 76.4003906,17.484375 76.2050781,17.328125 C75.7623698,16.9830729 75.5214844,16.5794271 75.4824219,16.1171875 C75.4759115,16.0585938 75.4710286,16.0016276 75.4677734,15.9462891 C75.4645182,15.8909505 75.4628906,15.8339844 75.4628906,15.7753906 C75.4628906,15.5735677 75.4791667,15.3733724 75.5117188,15.1748047 C75.5442708,14.976237 75.5898438,14.7760417 75.6484375,14.5742188 L75.6484375,14.5742188 C75.7395833,14.3072917 75.8404948,14.0419922 75.9511719,13.7783203 C76.061849,13.5146484 76.1888021,13.2558594 76.3320312,13.0019531 C76.4817708,12.7285156 76.616862,12.4746094 76.7373047,12.2402344 C76.8577474,12.0058594 76.9635417,11.7910156 77.0546875,11.5957031 C77.0677083,11.563151 77.077474,11.5322266 77.0839844,11.5029297 C77.0904948,11.4736328 77.09375,11.4427083 77.09375,11.4101562 C77.09375,11.2669271 77.0286458,11.172526 76.8984375,11.1269531 L76.8984375,11.1269531 L76.9277344,11.1464844 C76.8886719,11.1269531 76.8561198,11.1155599 76.8300781,11.1123047 C76.8040365,11.1090495 76.7845052,11.1074219 76.7714844,11.1074219 C76.6803385,11.1074219 76.5989583,11.1432292 76.5273438,11.2148438 C76.3515625,11.4557292 76.1595052,11.7438151 75.9511719,12.0791016 C75.7428385,12.414388 75.5247396,12.7838542 75.296875,13.1875 C75.0690104,13.578125 74.8623047,14.0013021 74.6767578,14.4570312 C74.4912109,14.9127604 74.3333333,15.3554688 74.203125,15.7851562 C74.1184896,16.0846354 74.0517578,16.3922526 74.0029297,16.7080078 C73.9541016,17.023763 73.9296875,17.328125 73.9296875,17.6210938 C73.9296875,17.9075521 73.9492188,18.1777344 73.9882812,18.4316406 L73.9882812,18.4316406 L73.9882812,18.421875 C74.1119792,19.3203125 74.6295573,20.0201823 75.5410156,20.5214844 C76.1269531,20.8470052 76.7910156,21.0097656 77.5332031,21.0097656 Z M76.2487183,24.4237671 L76.3222656,24.4179688 L78.0117188,24.1054688 L79.984375,23.734375 C80.0039062,23.7278646 80.0315755,23.7115885 80.0673828,23.6855469 C80.1031901,23.6595052 80.1276042,23.6334635 80.140625,23.6074219 L80.140625,23.6074219 L81.2832031,21.3320312 C81.3352865,21.2408854 81.3320312,21.1578776 81.2734375,21.0830078 C81.2148438,21.008138 81.1334635,20.9804688 81.0292969,21 C80.469401,21.1106771 79.8883464,21.2229818 79.2861328,21.3369141 C78.6839193,21.4508464 78.047526,21.5664062 77.3769531,21.6835938 C77.344401,21.6901042 77.3102214,21.7063802 77.2744141,21.7324219 C77.2386068,21.7584635 77.2141927,21.7845052 77.2011719,21.8105469 L77.2011719,21.8105469 L76.0683594,24.0859375 C76.0227865,24.1770833 76.0276693,24.2600911 76.0830078,24.3349609 C76.1383464,24.4098307 76.218099,24.4375 76.3222656,24.4179688 L76.2487183,24.4237671 Z" id="الاجتماعي---"></path>
            <path d="M67.0214844,21.2167969 C67.125651,21.2428385 67.2102865,21.203776 67.2753906,21.0996094 L67.2753906,21.0996094 L68.75,18.7753906 L68.1933594,10.484375 C68.186849,10.4257813 68.1673177,10.3785807 68.1347656,10.3427734 C68.1022135,10.3069661 68.063151,10.2841797 68.0175781,10.2744141 C67.9720052,10.2646484 67.9248047,10.2679036 67.8759766,10.2841797 C67.8271484,10.3004557 67.7864583,10.3346354 67.7539062,10.3867188 L67.7539062,10.3867188 L66.2890625,12.7109375 L66.8457031,21.0019531 C66.858724,21.1191406 66.9173177,21.1907552 67.0214844,21.2167969 Z M56.0449219,16.2851562 C56.7154948,16.2851562 57.4479167,16.2363281 58.2421875,16.1386719 C58.8671875,16.0540365 59.453125,15.9270833 60,15.7578125 C60.546875,15.5885417 61.0449219,15.3867188 61.4941406,15.1523438 C62.8873698,14.4166667 63.7792969,13.2578125 64.1699219,11.6757813 C64.2610677,11.3828125 64.3261719,11.0849609 64.3652344,10.7822266 C64.4042969,10.4794922 64.4238281,10.1653646 64.4238281,9.83984375 L64.4238281,9.83984375 L64.4238281,9.63964844 C64.4238281,9.56477865 64.4205729,9.49804688 64.4140625,9.43945312 L64.4140625,9.43945312 L63.9941406,3.21875 C63.9876302,3.16015625 63.968099,3.11295573 63.9355469,3.07714844 C63.9029948,3.04134115 63.8639323,3.01692708 63.8183594,3.00390625 C63.7727865,2.99088542 63.7255859,2.99414062 63.6767578,3.01367188 C63.6279297,3.03320312 63.5904948,3.06575521 63.5644531,3.11132812 L63.5644531,3.11132812 L62.0605469,5.51367188 C62.0735677,5.80013021 62.0914714,6.03613281 62.1142578,6.22167969 C62.1370443,6.40722656 62.1614583,6.54557292 62.1875,6.63671875 C62.2005208,6.70833333 62.2167969,6.86132812 62.2363281,7.09570312 C62.2558594,7.33007812 62.2753906,7.65234375 62.2949219,8.0625 C62.3404948,8.88932292 62.3795573,9.69661458 62.4121094,10.484375 C62.4251302,10.8359375 62.4365234,11.1533203 62.4462891,11.4365234 C62.4560547,11.7197266 62.4609375,11.985026 62.4609375,12.2324219 C62.1354167,12.3626302 61.7838542,12.4830729 61.40625,12.59375 C61.0286458,12.7044271 60.6347656,12.7988281 60.2246094,12.8769531 C59.7884115,12.9615885 59.3554688,13.0315755 58.9257812,13.0869141 C58.4960938,13.1422526 58.0957031,13.1861979 57.7246094,13.21875 C57.594401,13.2317708 57.4739583,13.2399089 57.3632812,13.2431641 C57.2526042,13.2464193 57.1386719,13.2480469 57.0214844,13.2480469 C56.5852865,13.2480469 56.1686198,13.2089844 55.7714844,13.1308594 L55.7714844,13.1308594 L55.7714844,13.140625 C55.2832031,13.0429688 54.9902344,12.8248698 54.8925781,12.4863281 C54.8730469,12.4277344 54.84375,12.3837891 54.8046875,12.3544922 C54.765625,12.3251953 54.7233073,12.3089193 54.6777344,12.3056641 C54.6321615,12.3024089 54.5865885,12.3138021 54.5410156,12.3398438 C54.4954427,12.3658854 54.4628906,12.4082031 54.4433594,12.4667969 C54.3066406,12.8183594 54.1715495,13.210612 54.0380859,13.6435547 C53.9046224,14.0764974 53.7727865,14.5501302 53.6425781,15.0644531 C53.6490885,15.4615885 53.8020833,15.7545573 54.1015625,15.9433594 C54.3554688,16.1061198 54.6451823,16.203776 54.9707031,16.2363281 C55.1334635,16.2558594 55.3059896,16.2688802 55.4882812,16.2753906 C55.6705729,16.281901 55.8561198,16.2851562 56.0449219,16.2851562 Z M49.4564819,16.7325994 L49.5214844,16.7246094 L51.3964844,16.3242188 L54.0625,15.6601563 C55.2213542,15.328125 56.155599,14.719401 56.8652344,13.8339844 C57.5488281,12.9746094 58.0924479,12.0045573 58.4960938,10.9238281 C58.6002604,10.5266927 58.6523438,10.1653646 58.6523438,9.83984375 C58.6523438,9.14973958 58.4016927,8.67122396 57.9003906,8.40429688 C57.6920573,8.29361979 57.483724,8.23828125 57.2753906,8.23828125 C57.0084635,8.23828125 56.7333984,8.32454427 56.4501953,8.49707031 C56.1669922,8.66959635 55.8854167,8.921875 55.6054688,9.25390625 C55.1302083,9.8203125 54.6858724,10.4518229 54.2724609,11.1484375 C53.8590495,11.8450521 53.4895833,12.5481771 53.1640625,13.2578125 L53.1640625,13.2578125 L49.7949219,13.7753906 C49.7428385,13.781901 49.6972656,13.8046875 49.6582031,13.84375 C49.6191406,13.8828125 49.5996094,13.9283854 49.5996094,13.9804688 L49.5996094,13.9804688 L49.2382812,16.4707031 C49.2252604,16.5553385 49.2464193,16.6236979 49.3017578,16.6757812 C49.3570964,16.7278646 49.4303385,16.7441406 49.5214844,16.7246094 L49.4564819,16.7325994 Z M55.0195312,12.7402344 C54.9739583,12.7076823 54.9348958,12.6702474 54.9023438,12.6279297 C54.8697917,12.585612 54.8372396,12.5286458 54.8046875,12.4570312 C54.7851562,12.4179688 54.7753906,12.3854167 54.7753906,12.359375 C54.7753906,12.3203125 54.7981771,12.2617188 54.84375,12.1835938 L54.84375,12.1835938 L55.3613281,11.4902344 C55.4980469,11.3144531 55.6738281,11.1842448 55.8886719,11.0996094 C56.0514323,11.2102865 56.1979167,11.4316406 56.328125,11.7636719 C56.3736979,11.8938802 56.3964844,12.0110677 56.3964844,12.1152344 C56.3964844,12.2324219 56.344401,12.3170573 56.2402344,12.3691406 C55.7714844,12.577474 55.3645833,12.7011719 55.0195312,12.7402344 Z M56.5625,6.68066406 C56.6276042,6.67740885 56.6829427,6.64973958 56.7285156,6.59765625 L56.7285156,6.59765625 L57.5097656,5.62109375 C57.7701823,5.29557292 58.0338542,4.96679688 58.3007812,4.63476562 C58.3333333,4.58268229 58.3463542,4.52897135 58.3398438,4.47363281 C58.3333333,4.41829427 58.3105469,4.36783854 58.2714844,4.32226562 L58.2714844,4.32226562 L56.9335938,3.0625 C56.8815104,3.01692708 56.8212891,2.99739583 56.7529297,3.00390625 C56.6845703,3.01041667 56.6276042,3.03971354 56.5820312,3.09179688 C56.4713542,3.24153646 56.3590495,3.38476562 56.2451172,3.52148438 C56.1311849,3.65820312 56.0188802,3.79817708 55.9082031,3.94140625 C55.7584635,4.12369792 55.6103516,4.30761719 55.4638672,4.49316406 C55.3173828,4.67871094 55.1692708,4.86588542 55.0195312,5.0546875 C54.9804688,5.10026042 54.9641927,5.15071615 54.9707031,5.20605469 C54.9772135,5.26139323 55.0032552,5.31184896 55.0488281,5.35742188 L55.0488281,5.35742188 L56.3867188,6.6171875 C56.4388021,6.66276042 56.4973958,6.68391927 56.5625,6.68066406 Z M49.140625,16.7294922 C49.2447917,16.7587891 49.3326823,16.7246094 49.4042969,16.6269531 L49.4042969,16.6269531 L50.8496094,14.5175781 L50.1757812,4.80078125 C50.1692708,4.7421875 50.1497396,4.69335937 50.1171875,4.65429687 C50.0846354,4.61523437 50.0455729,4.59082031 50,4.58105469 C49.9544271,4.57128906 49.9072266,4.57454427 49.8583984,4.59082031 C49.8095703,4.60709635 49.7721354,4.64127604 49.7460938,4.69335937 L49.7460938,4.69335937 L48.2714844,7.13476562 L48.6914062,12.9355469 C48.0664062,13.2154948 46.780599,13.4921875 44.8339844,13.765625 C44.781901,13.7721354 44.7379557,13.7949219 44.7021484,13.8339844 C44.6663411,13.8730469 44.6419271,13.9153646 44.6289062,13.9609375 L44.6289062,13.9609375 L44.1992188,16.4609375 C44.1861979,16.5520833 44.2089844,16.6253255 44.2675781,16.6806641 C44.3261719,16.7360026 44.4010417,16.750651 44.4921875,16.7246094 L44.4921875,16.7246094 L47.0898438,16.0605469 C47.6757812,15.9173177 48.2584635,15.4811198 48.8378906,14.7519531 L48.8378906,14.7519531 L48.9648438,16.5195312 C48.9778646,16.6302083 49.0364583,16.7001953 49.140625,16.7294922 Z M34.0332031,18.3164062 C34.4238281,18.3164062 34.8551432,18.2919922 35.3271484,18.2431641 C35.7991536,18.1943359 36.3183594,18.124349 36.8847656,18.0332031 C38.3626302,17.7858073 39.5279948,17.4895833 40.3808594,17.1445312 C40.485026,17.3203125 40.6738281,17.4082031 40.9472656,17.4082031 C40.999349,17.4082031 41.0563151,17.4049479 41.1181641,17.3984375 C41.180013,17.3919271 41.2434896,17.3789062 41.3085938,17.359375 C41.6341146,17.2617188 41.9954427,17.1119792 42.3925781,16.9101562 L42.3925781,16.9101562 L42.5097656,16.8417969 C42.5423177,16.8808594 42.578125,16.9052734 42.6171875,16.9150391 C42.65625,16.9248047 42.7050781,16.9296875 42.7636719,16.9296875 C42.9134115,16.9296875 43.0794271,16.9020182 43.2617188,16.8466797 C43.4440104,16.7913411 43.655599,16.7083333 43.8964844,16.5976562 C44.358724,16.3893229 44.6842448,16.1582031 44.8730469,15.9042969 C45.0423177,15.6829427 45.1871745,15.4388021 45.3076172,15.171875 C45.4280599,14.9049479 45.5289714,14.6217448 45.6103516,14.3222656 C45.6917318,14.0227865 45.7552083,13.7119141 45.8007812,13.3896484 C45.8463542,13.0673828 45.8854167,12.7402344 45.9179688,12.4082031 C45.9244792,12.3365885 45.9049479,12.2763672 45.859375,12.2275391 C45.8138021,12.1787109 45.7552083,12.1542969 45.6835938,12.1542969 L45.6835938,12.1542969 L45.6054688,12.1347656 C45.4557292,12.1803385 45.3710938,12.28125 45.3515625,12.4375 L45.3515625,12.4375 L45.3613281,12.4179688 C45.2701823,12.7760417 45.1269531,13.0625 44.9316406,13.2773438 C44.7363281,13.4921875 44.4661458,13.6484375 44.1210938,13.7460938 C44.1341146,13.6419271 44.1455078,13.5377604 44.1552734,13.4335938 C44.1650391,13.3294271 44.1699219,13.2220052 44.1699219,13.1113281 L44.1699219,13.1113281 L44.1699219,12.984375 C44.1503906,12.90625 44.1276042,12.8427734 44.1015625,12.7939453 C44.0755208,12.7451172 44.0104167,12.7207031 43.90625,12.7207031 C43.828125,12.7207031 43.7727865,12.7386068 43.7402344,12.7744141 C43.7076823,12.8102214 43.6751302,12.8541667 43.6425781,12.90625 L43.6425781,12.90625 L43.5449219,13.0820313 C43.5123698,13.140625 43.4863281,13.1959635 43.4667969,13.2480469 C43.4277344,13.3391927 43.3870443,13.4270833 43.3447266,13.5117188 C43.3024089,13.5963542 43.2552083,13.6582031 43.203125,13.6972656 L43.203125,13.6972656 C43.046875,13.8209635 42.8580729,13.938151 42.6367188,14.0488281 C42.4153646,14.1595052 42.1842448,14.234375 41.9433594,14.2734375 C41.9628906,14.1302083 41.9726562,14 41.9726562,13.8828125 L41.9726562,13.8828125 L41.9726562,13.765625 L41.9335938,13.5410156 C41.9010417,13.4498698 41.8701172,13.383138 41.8408203,13.3408203 C41.8115234,13.2985026 41.7513021,13.2773438 41.6601562,13.2773438 C41.6145833,13.2773438 41.5690104,13.2919922 41.5234375,13.3212891 C41.4778646,13.3505859 41.4420573,13.391276 41.4160156,13.4433594 C41.1751302,13.7949219 40.7486979,14.1074219 40.1367188,14.3808594 C39.8111979,14.530599 39.4677734,14.6640625 39.1064453,14.78125 C38.7451172,14.8984375 38.3740234,14.9977214 37.9931641,15.0791016 C37.6123047,15.1604818 37.2281901,15.2255859 36.8408203,15.2744141 C36.4534505,15.3232422 36.0709635,15.3541667 35.6933594,15.3671875 C35.6282552,15.3736979 35.5696615,15.3769531 35.5175781,15.3769531 L35.5175781,15.3769531 L35.3515625,15.3769531 C35.0651042,15.3769531 34.8079427,15.3606771 34.5800781,15.328125 C34.3522135,15.2955729 34.1503906,15.25 33.9746094,15.1914063 C33.5514323,15.0481771 33.3007812,14.7454427 33.2226562,14.2832031 L33.2226562,14.2832031 L33.2226562,14.3027344 C33.2161458,14.2701823 33.211263,14.2327474 33.2080078,14.1904297 C33.2047526,14.148112 33.203125,14.1106771 33.203125,14.078125 C33.203125,13.5638021 33.4505208,12.8151042 33.9453125,11.8320313 C33.9518229,11.8190104 33.9567057,11.804362 33.9599609,11.7880859 C33.9632161,11.7718099 33.9648438,11.7473958 33.9648438,11.7148438 C33.9648438,11.6432292 33.9501953,11.5830078 33.9208984,11.5341797 C33.8916016,11.4853516 33.8411458,11.4511719 33.7695312,11.4316406 L33.7695312,11.4316406 L33.7988281,11.4511719 C33.7597656,11.4316406 33.7272135,11.4202474 33.7011719,11.4169922 C33.6751302,11.413737 33.655599,11.4121094 33.6425781,11.4121094 C33.5904948,11.4121094 33.5465495,11.4202474 33.5107422,11.4365234 C33.4749349,11.4527995 33.4440104,11.4707031 33.4179688,11.4902344 C33.28125,11.6855469 33.133138,11.906901 32.9736328,12.1542969 C32.8141276,12.4016927 32.6497396,12.671875 32.4804688,12.9648438 C32.2981771,13.2773438 32.1321615,13.6126302 31.9824219,13.9707031 C31.8326823,14.328776 31.702474,14.6835938 31.5917969,15.0351563 C31.5657552,15.1328125 31.5397135,15.2369792 31.5136719,15.3476563 C31.4876302,15.4583333 31.4648438,15.570638 31.4453125,15.6845703 C31.4257812,15.7985026 31.4095052,15.9108073 31.3964844,16.0214844 C31.3834635,16.1321615 31.3769531,16.2330729 31.3769531,16.3242188 C31.3769531,16.4479167 31.3818359,16.5683594 31.3916016,16.6855469 C31.4013672,16.8027344 31.422526,16.9231771 31.4550781,17.046875 L31.4550781,17.046875 C31.6113281,17.7304688 32.1484375,18.1341146 33.0664062,18.2578125 L33.0664062,18.2578125 L33.0761719,18.2578125 C33.3496094,18.296875 33.6686198,18.3164062 34.0332031,18.3164062 Z M29.4433594,14.4199219 C29.5019531,14.4199219 29.5507813,14.4101562 29.5898438,14.390625 C30.3710938,14.3255208 31.1848958,14.2083333 32.03125,14.0390625 C32.8776042,13.8697917 33.7630208,13.6516927 34.6875,13.3847656 C35.625,13.1113281 36.4518229,12.7402344 37.1679688,12.2714844 C37.8841146,11.8027344 38.4895833,11.2330729 38.984375,10.5625 C39.1471354,10.3411458 39.3033854,10.1083984 39.453125,9.86425781 C39.6028646,9.62011719 39.7526042,9.35481771 39.9023438,9.06835938 L39.9023438,9.06835938 L39.9023438,9.078125 C40.0325521,8.83072917 40.0976562,8.58007812 40.0976562,8.32617188 C40.0976562,7.97460938 39.9609375,7.62630208 39.6875,7.28125 C39.3815104,6.92317708 38.9876302,6.74414062 38.5058594,6.74414062 C38.4407552,6.74414062 38.3740234,6.74739583 38.3056641,6.75390625 C38.2373047,6.76041667 38.1575521,6.7734375 38.0664062,6.79296875 C37.4088542,6.9296875 36.9205729,7.14778646 36.6015625,7.44726562 C35.9765625,8.03971354 35.3792318,8.63541667 34.8095703,9.234375 L34.83,9.213 L35.3222656,8.42382812 L34.9121094,2.15429688 C34.8990885,2.03710938 34.8388672,1.96549479 34.7314453,1.93945312 C34.6240234,1.91341146 34.5377604,1.94921875 34.4726562,2.046875 L34.4726562,2.046875 L33.0175781,4.38085938 L33.4277344,10.6503906 C33.4303385,10.6751302 33.4348307,10.6978516 33.4412109,10.7185547 L33.445,10.727 L33.125,11.0898438 C32.9017857,11.1344866 32.5769292,11.1827168 32.1504305,11.2345344 L31.9287109,11.2607422 C31.3916016,11.3225911 30.6966146,11.3893229 29.84375,11.4609375 C29.7916667,11.4674479 29.7460938,11.4886068 29.7070313,11.5244141 C29.6679688,11.5602214 29.6419271,11.6041667 29.6289063,11.65625 L29.6289063,11.65625 L29.2089844,14.1464844 C29.1959635,14.218099 29.2138672,14.2815755 29.2626953,14.3369141 C29.3115234,14.3922526 29.3717448,14.4199219 29.4433594,14.4199219 Z M34.7167969,10.8066406 C34.9707031,10.546224 35.234375,10.2972005 35.5078125,10.0595703 C35.78125,9.8219401 36.0742188,9.61523438 36.3867188,9.43945312 C36.5299479,9.36783854 36.6666667,9.33203125 36.796875,9.33203125 C36.8815104,9.33203125 36.9824219,9.34830729 37.0996094,9.38085938 C37.3535156,9.45898438 37.5227865,9.57291667 37.6074219,9.72265625 C37.639974,9.79427083 37.6627604,9.85611979 37.6757812,9.90820312 C37.2330729,10.1165365 36.7643229,10.2906901 36.2695312,10.4306641 C35.7747396,10.570638 35.2571615,10.6959635 34.7167969,10.8066406 Z M25.46875,14.859375 C25.7421875,14.8333333 26.0693359,14.7926432 26.4501953,14.7373047 C26.8310547,14.6819661 27.2005208,14.6217448 27.5585938,14.5566406 C27.8580729,14.4980469 28.1396484,14.4361979 28.4033203,14.3710938 C28.6669922,14.3059896 28.9029948,14.2376302 29.1113281,14.1660156 C29.1503906,14.3157552 29.2545573,14.390625 29.4238281,14.390625 L29.4238281,14.390625 L29.4433594,14.390625 C29.4628906,14.390625 29.4921875,14.3808594 29.53125,14.3613281 C29.5703125,14.3417969 29.5963542,14.3255208 29.609375,14.3125 C30.1106771,13.7721354 30.5110677,13.156901 30.8105469,12.4667969 C30.953776,12.1282552 31.0807292,11.8157552 31.1914062,11.5292969 C31.3020833,11.2428385 31.3932292,10.9824219 31.4648438,10.7480469 L31.4648438,10.7480469 C31.4713542,10.735026 31.4778646,10.702474 31.484375,10.6503906 C31.4908854,10.5983073 31.4941406,10.5332031 31.4941406,10.4550781 C31.4941406,10.2272135 31.40625,10.1132812 31.2304688,10.1132812 C31.1848958,10.1132812 31.1360677,10.1279297 31.0839844,10.1572266 C31.031901,10.1865234 30.9863281,10.2369792 30.9472656,10.3085938 C30.7910156,10.6666667 30.546875,10.9466146 30.2148438,11.1484375 C29.9283854,11.2981771 29.4205729,11.4397786 28.6914062,11.5732422 C27.9622396,11.7067057 27.0117188,11.8255208 25.8398438,11.9296875 C25.7877604,11.9361979 25.7405599,11.9589844 25.6982422,11.9980469 C25.6559245,12.0371094 25.6315104,12.0826823 25.625,12.1347656 L25.625,12.1347656 L25.2148438,14.5859375 C25.2018229,14.6640625 25.2213542,14.7307943 25.2734375,14.7861328 C25.3255208,14.8414714 25.390625,14.8658854 25.46875,14.859375 Z M25.9420776,19.6893921 L26.015625,19.6835938 L27.7050781,19.3710938 L29.6777344,19 C29.6972656,18.9934896 29.7249349,18.9772135 29.7607422,18.9511719 C29.7965495,18.9251302 29.8209635,18.8990885 29.8339844,18.8730469 L29.8339844,18.8730469 L30.9765625,16.5976562 C31.0286458,16.5065104 31.0253906,16.4235026 30.9667969,16.3486328 C30.9082031,16.273763 30.8268229,16.2460938 30.7226562,16.265625 C30.1627604,16.3763021 29.5817057,16.4886068 28.9794922,16.6025391 C28.3772786,16.7164714 27.7408854,16.8320312 27.0703125,16.9492188 C27.0377604,16.9557292 27.0035807,16.9720052 26.9677734,16.9980469 C26.9319661,17.0240885 26.9075521,17.0501302 26.8945312,17.0761719 L26.8945312,17.0761719 L25.7617188,19.3515625 C25.7161458,19.4427083 25.7210286,19.5257161 25.7763672,19.6005859 C25.8317057,19.6754557 25.9114583,19.703125 26.015625,19.6835938 L25.9420776,19.6893921 Z M20.0878906,16.6953125 C20.139974,16.7083333 20.1888021,16.7050781 20.234375,16.6855469 C20.2799479,16.6660156 20.3190104,16.6367188 20.3515625,16.5976562 C20.5403646,16.3307292 20.7421875,16.0686849 20.9570312,15.8115234 C21.171875,15.554362 21.4095052,15.2955729 21.6699219,15.0351562 C22.171224,14.5338542 22.7018229,14.1790365 23.2617188,13.9707031 C23.3268229,13.938151 23.4049479,13.921875 23.4960938,13.921875 C23.515625,13.921875 23.5351562,13.9235026 23.5546875,13.9267578 C23.5742188,13.930013 23.5970052,13.9348958 23.6230469,13.9414062 C23.6295573,13.9479167 23.6490885,13.9576823 23.6816406,13.9707031 C23.7792969,14.0032552 23.8655599,14.0537109 23.9404297,14.1220703 C24.0152995,14.1904297 24.0820312,14.2701823 24.140625,14.3613281 C24.2708333,14.7714844 24.5605469,14.9733073 25.0097656,14.9667969 L25.0097656,14.9667969 L25.4199219,14.8789062 C25.4459635,14.8723958 25.476888,14.8544922 25.5126953,14.8251953 C25.5485026,14.7958984 25.5729167,14.7682292 25.5859375,14.7421875 L25.5859375,14.7421875 L26.6796875,12.3691406 C26.9856771,12.3626302 27.1354167,12.3382161 27.1289062,12.2958984 C27.1223958,12.2535807 27.0084635,12.1966146 26.7871094,12.125 C26.8196615,12.0403646 26.8082682,11.9638672 26.7529297,11.8955078 C26.6975911,11.8271484 26.624349,11.7994792 26.5332031,11.8125 L26.5332031,11.8125 L25.9472656,11.9003906 L25.8496094,11.7441406 C25.7779948,11.6334635 25.7014974,11.5276693 25.6201172,11.4267578 C25.538737,11.3258464 25.4361979,11.2395833 25.3125,11.1679688 C25.1106771,11.0638021 24.8470052,11.0279948 24.5214844,11.0605469 L24.5214844,11.0605469 L24.53125,11.0605469 C23.6132812,11.1451823 22.8092448,11.5195312 22.1191406,12.1835938 C21.9759115,12.3203125 21.8261719,12.4765625 21.6699219,12.6523438 C21.5136719,12.828125 21.3606771,13.0120443 21.2109375,13.2041016 C21.0611979,13.3961589 20.9163411,13.5865885 20.7763672,13.7753906 C20.6363932,13.9641927 20.5143229,14.139974 20.4101562,14.3027344 C20.2018229,14.6347656 20.0276693,14.9651693 19.8876953,15.2939453 C19.7477214,15.6227214 19.625651,15.9433594 19.5214844,16.2558594 C19.5019531,16.3144531 19.5068359,16.3730469 19.5361328,16.4316406 C19.5654297,16.4902344 19.6126302,16.5325521 19.6777344,16.5585938 L19.6777344,16.5585938 L20.0878906,16.6953125 Z M24.4824219,9.02441406 C24.547526,9.02115885 24.6028646,8.99348958 24.6484375,8.94140625 L24.6484375,8.94140625 L25.4296875,7.96484375 C25.6901042,7.63932292 25.953776,7.31054688 26.2207031,6.97851563 C26.2532552,6.92643229 26.266276,6.87272135 26.2597656,6.81738281 C26.2532552,6.76204427 26.2304688,6.71158854 26.1914062,6.66601563 L26.1914062,6.66601563 L24.8535156,5.40625 C24.8014323,5.36067708 24.7412109,5.34114583 24.6728516,5.34765625 C24.6044922,5.35416667 24.547526,5.38346354 24.5019531,5.43554688 C24.391276,5.58528646 24.2789714,5.72851563 24.1650391,5.86523438 C24.0511068,6.00195313 23.9388021,6.14192708 23.828125,6.28515625 C23.6783854,6.46744792 23.5302734,6.65136719 23.3837891,6.83691406 C23.2373047,7.02246094 23.0891927,7.20963542 22.9394531,7.3984375 C22.9003906,7.44401042 22.8841146,7.49446615 22.890625,7.54980469 C22.8971354,7.60514323 22.9231771,7.65559896 22.96875,7.70117188 L22.96875,7.70117188 L24.3066406,8.9609375 C24.358724,9.00651042 24.4173177,9.02766927 24.4824219,9.02441406 Z M15.6445312,24.0097656 C15.8984375,24.0097656 16.1490885,23.9902344 16.3964844,23.9511719 C16.8717448,23.8795573 17.360026,23.7672526 17.8613281,23.6142578 C18.3626302,23.461263 18.8541667,23.2643229 19.3359375,23.0234375 C19.8242188,22.7890625 20.2897135,22.5286458 20.7324219,22.2421875 C21.1751302,21.9557292 21.6015625,21.6464844 22.0117188,21.3144531 C22.421875,20.9759115 22.7832031,20.6373698 23.0957031,20.2988281 C23.4082031,19.9602865 23.6686198,19.6347656 23.8769531,19.3222656 C24.202474,18.8079427 24.3652344,18.3554688 24.3652344,17.9648438 C24.3652344,17.6067708 24.2415365,17.2942708 23.9941406,17.0273438 C23.8834635,16.9166667 23.7597656,16.8271484 23.6230469,16.7587891 C23.4863281,16.6904297 23.3333333,16.6432292 23.1640625,16.6171875 L23.1640625,16.6171875 C23.0078125,16.5911458 22.8629557,16.5651042 22.7294922,16.5390625 C22.5960286,16.5130208 22.4739583,16.483724 22.3632812,16.4511719 C21.9466146,16.3404948 21.5592448,16.1614583 21.2011719,15.9140625 C20.8496094,15.6731771 20.608724,15.3541667 20.4785156,14.9570313 C20.4459635,14.8528646 20.3792318,14.7958984 20.2783203,14.7861328 C20.1774089,14.7763672 20.1009115,14.8170573 20.0488281,14.9082031 C19.8990885,15.1686198 19.7639974,15.4290365 19.6435547,15.6894531 C19.523112,15.9498698 19.4108073,16.2167969 19.3066406,16.4902344 C19.2415365,16.6790365 19.1927083,16.8499349 19.1601562,17.0029297 C19.1276042,17.1559245 19.1113281,17.3072917 19.1113281,17.4570312 C19.1113281,17.6132812 19.1308594,17.7532552 19.1699219,17.8769531 C19.3391927,18.4628906 19.7265625,18.8893229 20.3320312,19.15625 C20.5208333,19.2408854 20.7145182,19.3108724 20.9130859,19.3662109 C21.1116536,19.4215495 21.3183594,19.4720052 21.5332031,19.5175781 C20.4654948,20.110026 19.3098958,20.5201823 18.0664062,20.7480469 C17.8320312,20.7936198 17.5895182,20.8277995 17.3388672,20.8505859 C17.0882161,20.8733724 16.8391927,20.8847656 16.5917969,20.8847656 C16.500651,20.8847656 16.3997396,20.883138 16.2890625,20.8798828 C16.1783854,20.8766276 16.0742188,20.8717448 15.9765625,20.8652344 C15.625,20.8391927 15.3092448,20.7822266 15.0292969,20.6943359 C14.749349,20.6064453 14.5117188,20.484375 14.3164062,20.328125 C13.8736979,19.9830729 13.6328125,19.5794271 13.59375,19.1171875 C13.5872396,19.0585938 13.5823568,19.0016276 13.5791016,18.9462891 C13.5758464,18.8909505 13.5742188,18.8339844 13.5742188,18.7753906 C13.5742188,18.5735677 13.5904948,18.3733724 13.6230469,18.1748047 C13.655599,17.976237 13.7011719,17.7760417 13.7597656,17.5742188 L13.7597656,17.5742188 C13.8509115,17.3072917 13.9518229,17.0419922 14.0625,16.7783203 C14.1731771,16.5146484 14.3001302,16.2558594 14.4433594,16.0019531 C14.593099,15.7285156 14.7281901,15.4746094 14.8486328,15.2402344 C14.9690755,15.0058594 15.0748698,14.7910156 15.1660156,14.5957031 C15.1790365,14.563151 15.1888021,14.5322266 15.1953125,14.5029297 C15.2018229,14.4736328 15.2050781,14.4427083 15.2050781,14.4101563 C15.2050781,14.2669271 15.139974,14.172526 15.0097656,14.1269531 L15.0097656,14.1269531 L15.0390625,14.1464844 C15,14.1269531 14.9674479,14.1155599 14.9414062,14.1123047 C14.9153646,14.1090495 14.8958333,14.1074219 14.8828125,14.1074219 C14.7916667,14.1074219 14.7102865,14.1432292 14.6386719,14.2148438 C14.4628906,14.4557292 14.2708333,14.7438151 14.0625,15.0791016 C13.8541667,15.414388 13.6360677,15.7838542 13.4082031,16.1875 C13.1803385,16.578125 12.9736328,17.0013021 12.7880859,17.4570312 C12.6025391,17.9127604 12.4446615,18.3554688 12.3144531,18.7851562 C12.2298177,19.0846354 12.1630859,19.3922526 12.1142578,19.7080078 C12.0654297,20.023763 12.0410156,20.328125 12.0410156,20.6210938 C12.0410156,20.9075521 12.0605469,21.1777344 12.0996094,21.4316406 L12.0996094,21.4316406 L12.0996094,21.421875 C12.2233073,22.3203125 12.7408854,23.0201823 13.6523438,23.5214844 C14.2382812,23.8470052 14.9023438,24.0097656 15.6445312,24.0097656 Z M14.3600464,27.4237671 L14.4335938,27.4179688 L16.1230469,27.1054688 L18.0957031,26.734375 C18.1152344,26.7278646 18.1429036,26.7115885 18.1787109,26.6855469 C18.2145182,26.6595052 18.2389323,26.6334635 18.2519531,26.6074219 L18.2519531,26.6074219 L19.3945312,24.3320312 C19.4466146,24.2408854 19.4433594,24.1578776 19.3847656,24.0830078 C19.3261719,24.008138 19.2447917,23.9804688 19.140625,24 C18.5807292,24.1106771 17.9996745,24.2229818 17.3974609,24.3369141 C16.7952474,24.4508464 16.1588542,24.5664062 15.4882812,24.6835938 C15.4557292,24.6901042 15.4215495,24.7063802 15.3857422,24.7324219 C15.3499349,24.7584635 15.3255208,24.7845052 15.3125,24.8105469 L15.3125,24.8105469 L14.1796875,27.0859375 C14.1341146,27.1770833 14.1389974,27.2600911 14.1943359,27.3349609 C14.2496745,27.4098307 14.3294271,27.4375 14.4335938,27.4179688 L14.3600464,27.4237671 Z M14.3600464,27.4237671 L14.4335938,27.4179688 L16.1230469,27.1054688 L18.0957031,26.734375 C18.1152344,26.7278646 18.1429036,26.7115885 18.1787109,26.6855469 C18.2145182,26.6595052 18.2389323,26.6334635 18.2519531,26.6074219 L18.2519531,26.6074219 L19.3945312,24.3320312 C19.4466146,24.2408854 19.4433594,24.1578776 19.3847656,24.0830078 C19.3261719,24.008138 19.2447917,23.9804688 19.140625,24 C18.5807292,24.1106771 17.9996745,24.2229818 17.3974609,24.3369141 C16.7952474,24.4508464 16.1588542,24.5664062 15.4882812,24.6835938 C15.4557292,24.6901042 15.4215495,24.7063802 15.3857422,24.7324219 C15.3499349,24.7584635 15.3255208,24.7845052 15.3125,24.8105469 L15.3125,24.8105469 L14.1796875,27.0859375 C14.1341146,27.1770833 14.1389974,27.2600911 14.1943359,27.3349609 C14.2496745,27.4098307 14.3294271,27.4375 14.4335938,27.4179688 L14.3600464,27.4237671 Z M14.3600464,27.4237671 L14.4335938,27.4179688 L16.1230469,27.1054688 L18.0957031,26.734375 C18.1152344,26.7278646 18.1429036,26.7115885 18.1787109,26.6855469 C18.2145182,26.6595052 18.2389323,26.6334635 18.2519531,26.6074219 L18.2519531,26.6074219 L19.3945312,24.3320312 C19.4466146,24.2408854 19.4433594,24.1578776 19.3847656,24.0830078 C19.3261719,24.008138 19.2447917,23.9804688 19.140625,24 C18.5807292,24.1106771 17.9996745,24.2229818 17.3974609,24.3369141 C16.7952474,24.4508464 16.1588542,24.5664062 15.4882812,24.6835938 C15.4557292,24.6901042 15.4215495,24.7063802 15.3857422,24.7324219 C15.3499349,24.7584635 15.3255208,24.7845052 15.3125,24.8105469 L15.3125,24.8105469 L14.1796875,27.0859375 C14.1341146,27.1770833 14.1389974,27.2600911 14.1943359,27.3349609 C14.2496745,27.4098307 14.3294271,27.4375 14.4335938,27.4179688 L14.3600464,27.4237671 Z M14.3600464,27.4237671 L14.4335938,27.4179688 L16.1230469,27.1054688 L18.0957031,26.734375 C18.1152344,26.7278646 18.1429036,26.7115885 18.1787109,26.6855469 C18.2145182,26.6595052 18.2389323,26.6334635 18.2519531,26.6074219 L18.2519531,26.6074219 L19.3945312,24.3320312 C19.4466146,24.2408854 19.4433594,24.1578776 19.3847656,24.0830078 C19.3261719,24.008138 19.2447917,23.9804688 19.140625,24 C18.5807292,24.1106771 17.9996745,24.2229818 17.3974609,24.3369141 C16.7952474,24.4508464 16.1588542,24.5664062 15.4882812,24.6835938 C15.4557292,24.6901042 15.4215495,24.7063802 15.3857422,24.7324219 C15.3499349,24.7584635 15.3255208,24.7845052 15.3125,24.8105469 L15.3125,24.8105469 L14.1796875,27.0859375 C14.1341146,27.1770833 14.1389974,27.2600911 14.1943359,27.3349609 C14.2496745,27.4098307 14.3294271,27.4375 14.4335938,27.4179688 L14.3600464,27.4237671 Z M14.3600464,27.4237671 L14.4335938,27.4179688 L16.1230469,27.1054688 L18.0957031,26.734375 C18.1152344,26.7278646 18.1429036,26.7115885 18.1787109,26.6855469 C18.2145182,26.6595052 18.2389323,26.6334635 18.2519531,26.6074219 L18.2519531,26.6074219 L19.3945312,24.3320312 C19.4466146,24.2408854 19.4433594,24.1578776 19.3847656,24.0830078 C19.3261719,24.008138 19.2447917,23.9804688 19.140625,24 C18.5807292,24.1106771 17.9996745,24.2229818 17.3974609,24.3369141 C16.7952474,24.4508464 16.1588542,24.5664062 15.4882812,24.6835938 C15.4557292,24.6901042 15.4215495,24.7063802 15.3857422,24.7324219 C15.3499349,24.7584635 15.3255208,24.7845052 15.3125,24.8105469 L15.3125,24.8105469 L14.1796875,27.0859375 C14.1341146,27.1770833 14.1389974,27.2600911 14.1943359,27.3349609 C14.2496745,27.4098307 14.3294271,27.4375 14.4335938,27.4179688 L14.3600464,27.4237671 Z" id="الفلسطيني--------"></path>
        </g>
    </g>
</svg>