<svg width="630" height="93" viewBox="0 0 630 93" fill="none" xmlns="http://www.w3.org/2000/svg">
<path d="M21.4847 89.664L25.8047 81.096C23.5007 81.528 21.1967 81.96 18.8927 82.392C16.5887 82.824 14.2847 83.256 11.9807 83.688L7.66069 92.256C9.96469 91.824 12.2687 91.392 14.5727 90.96C16.8767 90.528 19.1807 90.096 21.4847 89.664ZM9.792 44.936C9.648 44.936 9.552 44.984 9.504 45.08C8.88 45.896 8.208 46.904 7.488 48.104C6.768 49.304 5.976 50.672 5.112 52.208C3.336 55.328 1.992 58.496 1.08 61.712C0.744 62.864 0.48 63.968 0.288 65.024C0.144 66.08 0.072 67.16 0.072 68.264C0.072 70.76 0.48 72.8 1.296 74.384C2.16 75.92 3.6 77.24 5.616 78.344C6.672 78.92 7.776 79.352 8.928 79.64C10.128 79.88 11.352 80 12.6 80C13.032 80 13.464 80 13.896 80C14.328 79.952 14.784 79.904 15.264 79.856C18.816 79.376 22.392 78.248 25.992 76.472C28.056 75.464 30.144 74.24 32.256 72.8C34.368 71.36 36.336 69.8 38.16 68.12C39.984 66.392 41.448 64.664 42.552 62.936C43.704 61.208 44.28 59.696 44.28 58.4C44.28 57.296 43.92 56.36 43.2 55.592C42.48 54.824 41.592 54.368 40.536 54.224C38.136 53.888 35.904 53.192 33.84 52.136C31.824 51.08 30.48 49.52 29.808 47.456C28.752 49.232 27.864 51.128 27.144 53.144C26.664 54.392 26.424 55.52 26.424 56.528C26.424 56.96 26.496 57.392 26.64 57.824C27.216 59.744 28.488 61.136 30.456 62C32.52 62.912 34.752 63.464 37.152 63.656C32.496 66.632 27.384 68.624 21.816 69.632C20.904 69.824 19.968 69.968 19.008 70.064C18.096 70.112 17.16 70.136 16.2 70.136C13.944 70.136 11.88 69.848 10.008 69.272C8.184 68.696 6.72 67.784 5.616 66.536C4.56 65.24 4.032 63.536 4.032 61.424C4.032 60.656 4.08 59.864 4.176 59.048C4.32 58.232 4.512 57.44 4.752 56.672C5.328 54.8 6.168 52.856 7.272 50.84C8.376 48.824 9.312 47.024 10.08 45.44C10.128 45.344 10.152 45.248 10.152 45.152C10.152 45.008 10.032 44.936 9.792 44.936ZM50.2661 19.064L45.1541 14.312C44.1941 15.512 43.2101 16.736 42.2021 17.984C41.1941 19.232 40.2101 20.48 39.2501 21.728L44.3621 26.48C45.3701 25.232 46.3541 23.984 47.3141 22.736C48.3221 21.536 49.3061 20.312 50.2661 19.064ZM47.3726 33.992L47.4446 33.92C46.8686 33.632 46.0766 33.56 45.0686 33.704C41.7566 34.088 38.9246 35.408 36.5726 37.664C34.5086 39.632 32.6606 41.84 31.0286 44.288C29.4446 46.736 28.1486 49.472 27.1406 52.496L28.6526 53C30.0446 51.032 31.6526 49.088 33.4766 47.168C35.3486 45.2 37.4846 43.76 39.8846 42.848C40.7486 42.56 41.4926 42.536 42.1166 42.776V42.848C43.0766 43.136 43.8206 43.832 44.3486 44.936C44.6366 46.088 45.4046 46.616 46.6526 46.52C46.8446 46.472 47.0606 46.424 47.3006 46.376C47.5406 46.328 47.8046 46.28 48.0926 46.232L52.5566 36.512L50.1086 36.872C50.1086 36.872 50.0846 36.872 50.0366 36.872C49.9886 36.872 49.8926 36.848 49.7486 36.8C49.4126 36.368 49.0766 35.864 48.7406 35.288C48.4046 34.712 47.9726 34.28 47.4446 33.992H47.3726ZM63.18 61.664L67.5 53.096C65.196 53.528 62.892 53.96 60.588 54.392C58.284 54.824 55.98 55.256 53.676 55.688L49.356 64.256C51.66 63.824 53.964 63.392 56.268 62.96C58.572 62.528 60.876 62.096 63.18 61.664ZM62.5022 45.272H62.5742C63.7742 43.976 64.8062 42.536 65.6702 40.952C66.5342 39.368 67.2542 37.808 67.8302 36.272C68.4542 34.688 68.9342 33.344 69.2702 32.24C69.3662 32.144 69.3902 31.88 69.3422 31.448C69.2942 30.968 69.1742 30.92 68.9822 31.304C68.7422 31.928 68.3102 32.624 67.6862 33.392C67.1102 34.112 66.3662 34.664 65.4542 35.048C64.4942 35.48 63.1982 35.864 61.5662 36.2C59.9822 36.488 58.3262 36.752 56.5982 36.992C54.8702 37.232 53.3102 37.424 51.9182 37.568C50.5742 37.712 49.6862 37.808 49.2542 37.856L47.7422 47C49.1342 46.856 50.7422 46.64 52.5662 46.352C54.4382 46.064 56.2622 45.728 58.0382 45.344C59.8142 44.96 61.2542 44.528 62.3582 44.048C62.3102 44.288 62.2622 44.576 62.2142 44.912C62.2142 45.2 62.3102 45.32 62.5022 45.272ZM76.1996 8.712L77.7116 31.752L83.0396 23.328L81.5276 0.215997L76.1996 8.712ZM95.7836 18.144C94.4396 18.144 93.1676 18.408 91.9676 18.936C90.7676 19.416 89.8556 19.944 89.2316 20.52C86.9276 22.68 84.6956 24.912 82.5356 27.216C80.4236 29.52 78.3116 31.872 76.1996 34.272C75.2396 34.464 73.7036 34.704 71.5916 34.992C69.4796 35.232 66.7916 35.472 63.5276 35.712V35.784L62.0156 45C62.1596 45 62.2796 44.976 62.3756 44.928V45C65.3036 44.712 68.3516 44.256 71.5196 43.632C74.6876 43.008 77.9516 42.192 81.3116 41.184C88.0796 39.168 93.2636 35.76 96.8636 30.96C97.4876 30.144 98.0636 29.304 98.5916 28.44C99.1676 27.528 99.6956 26.568 100.176 25.56C100.608 24.744 100.824 23.952 100.824 23.184C100.824 21.888 100.32 20.736 99.3116 19.728C98.3516 18.672 97.1756 18.144 95.7836 18.144ZM93.5516 29.088C93.5516 29.472 93.4076 29.736 93.1196 29.88C91.0556 30.84 88.8236 31.608 86.4236 32.184C84.0716 32.76 81.6236 33.312 79.0796 33.84C80.3756 32.496 81.6716 31.176 82.9676 29.88C84.3116 28.584 85.8236 27.48 87.5036 26.568C88.0316 26.232 88.6556 26.064 89.3756 26.064C90.4316 26.064 91.3916 26.352 92.2556 26.928C93.1196 27.456 93.5516 28.176 93.5516 29.088ZM107.121 42.008C107.073 42.008 107.049 42.056 107.049 42.152C106.185 43.544 104.457 44.84 101.865 46.04C99.4174 47.096 96.6094 47.984 93.4414 48.704C90.2734 49.424 87.0094 49.784 83.6494 49.784C82.0174 49.784 80.5054 49.64 79.1134 49.352C77.7694 49.064 76.6894 48.512 75.8734 47.696C75.1054 46.832 74.7214 45.632 74.7214 44.096C74.7214 42.032 75.6574 39.176 77.5294 35.528C77.5774 35.432 77.6014 35.336 77.6014 35.24C77.6014 35.096 77.4814 35.024 77.2414 35.024C77.0974 35.024 77.0014 35.072 76.9534 35.168C76.6174 35.696 76.1614 36.392 75.5854 37.256C75.0574 38.12 74.4334 39.176 73.7134 40.424C72.9934 41.624 72.3694 42.848 71.8414 44.096C71.3134 45.344 70.8574 46.616 70.4734 47.912C69.9454 49.592 69.6814 51.104 69.6814 52.448C69.6814 52.88 69.7054 53.312 69.7534 53.744C69.8494 54.128 69.9214 54.512 69.9694 54.896C70.3054 56.432 71.2894 57.512 72.9214 58.136C74.5534 58.712 76.4734 59 78.6814 59C81.5134 59 85.0174 58.64 89.1934 57.92C92.2174 57.392 94.8574 56.84 97.1134 56.264C99.4174 55.688 101.337 55.04 102.873 54.32C103.017 55.184 103.545 55.616 104.457 55.616C104.649 55.616 104.841 55.616 105.033 55.616C105.225 55.568 105.417 55.52 105.609 55.472C106.233 55.28 106.857 55.064 107.481 54.824C108.153 54.536 108.825 54.224 109.497 53.888C110.169 53.504 110.553 53.312 110.649 53.312C110.697 53.648 110.889 53.816 111.225 53.816C111.945 53.816 112.809 53.624 113.817 53.24C114.825 52.808 115.761 52.328 116.625 51.8C117.537 51.224 118.137 50.744 118.425 50.36C119.625 48.824 120.465 46.976 120.945 44.816C121.473 42.608 121.857 40.28 122.097 37.832C122.097 37.784 122.097 37.76 122.097 37.76H122.025C121.929 37.856 121.857 37.976 121.809 38.12C120.945 41.384 118.713 43.352 115.113 44.024C115.257 43.448 115.377 42.872 115.473 42.296C115.569 41.72 115.617 41.12 115.617 40.496V40.208C115.617 40.016 115.569 39.92 115.473 39.92C115.377 39.92 115.305 40.016 115.257 40.208C114.969 40.688 114.705 41.24 114.465 41.864C114.225 42.488 113.889 42.992 113.457 43.376C112.737 43.904 111.825 44.432 110.721 44.96C109.665 45.488 108.513 45.776 107.265 45.824C107.217 45.824 107.169 45.824 107.121 45.824C107.121 45.776 107.121 45.752 107.121 45.752C107.217 45.224 107.289 44.768 107.337 44.384C107.385 43.952 107.409 43.616 107.409 43.376V43.088C107.409 43.088 107.385 42.92 107.337 42.584C107.289 42.2 107.217 42.008 107.121 42.008ZM131.348 19.296L132.932 41.256C130.628 42.456 125.564 43.608 117.74 44.712L116.156 54C118.172 53.472 119.972 53.016 121.556 52.632C123.188 52.248 124.604 51.888 125.804 51.552C128.252 50.928 130.724 48.744 133.22 45L133.94 54L139.124 46.368L136.676 10.512L131.348 19.296ZM165.579 10.064L160.467 5.312C159.507 6.512 158.523 7.736 157.515 8.984C156.507 10.232 155.523 11.48 154.563 12.728L159.675 17.48C160.683 16.232 161.667 14.984 162.627 13.736C163.635 12.536 164.619 11.312 165.579 10.064ZM152.809 38.592C152.809 38.16 152.953 37.776 153.241 37.44C153.913 36.576 154.561 35.688 155.185 34.776C155.857 33.864 156.769 33.24 157.921 32.904C158.401 33.096 158.977 33.672 159.649 34.632C160.321 35.592 160.657 36.6 160.657 37.656C160.657 38.424 160.273 39 159.505 39.384C157.633 40.248 155.953 40.752 154.465 40.896C154.129 40.752 153.769 40.464 153.385 40.032C153.001 39.552 152.809 39.072 152.809 38.592ZM163.033 24.12C161.305 24.12 159.457 25.272 157.489 27.576C155.665 29.736 153.985 32.112 152.449 34.704C150.913 37.296 149.521 39.984 148.273 42.768L135.313 44.712L133.945 54L140.929 52.488L150.793 50.04C154.921 48.888 158.257 46.704 160.801 43.488C162.049 41.904 163.153 40.248 164.113 38.52C165.121 36.744 165.985 34.896 166.705 32.976C167.089 31.44 167.281 30.168 167.281 29.16C167.281 27.768 166.921 26.592 166.201 25.632C165.481 24.624 164.425 24.12 163.033 24.12ZM187.278 35.44C187.998 32.896 188.286 30.232 188.142 27.448L186.558 4.192L181.158 12.904C181.254 14.104 181.326 15.016 181.374 15.64C181.47 16.216 181.542 16.72 181.59 17.152C181.686 17.584 181.758 18.16 181.806 18.88C181.902 19.6 181.974 20.704 182.022 22.192C182.118 24.688 182.238 27.4 182.382 30.328C182.526 33.256 182.598 35.92 182.598 38.32C180.198 39.376 177.294 40.24 173.886 40.912C170.526 41.584 167.286 42.04 164.166 42.28C162.582 42.376 160.95 42.4 159.27 42.352C157.638 42.256 156.222 41.944 155.022 41.416C153.822 40.888 153.054 40.048 152.718 38.896C152.238 40.192 151.734 41.632 151.206 43.216C150.726 44.8 150.246 46.528 149.766 48.4C149.814 49.456 150.246 50.272 151.062 50.848C151.926 51.376 152.886 51.688 153.942 51.784C155.622 51.976 157.446 52.048 159.414 52C161.43 51.904 163.59 51.712 165.894 51.424C171.414 50.704 176.046 49.072 179.79 46.528C183.582 43.984 186.078 40.288 187.278 35.44ZM195.451 39.032L197.467 69.632L202.795 61.136L200.779 30.536L195.451 39.032ZM240.086 89.664L244.406 81.096C242.102 81.528 239.798 81.96 237.494 82.392C235.19 82.824 232.886 83.256 230.582 83.688L226.262 92.256C228.566 91.824 230.87 91.392 233.174 90.96C235.478 90.528 237.782 90.096 240.086 89.664ZM228.394 44.936C228.25 44.936 228.154 44.984 228.106 45.08C227.482 45.896 226.81 46.904 226.09 48.104C225.37 49.304 224.578 50.672 223.714 52.208C221.938 55.328 220.594 58.496 219.682 61.712C219.346 62.864 219.082 63.968 218.89 65.024C218.746 66.08 218.674 67.16 218.674 68.264C218.674 70.76 219.082 72.8 219.898 74.384C220.762 75.92 222.202 77.24 224.218 78.344C225.274 78.92 226.378 79.352 227.53 79.64C228.73 79.88 229.954 80 231.202 80C231.634 80 232.066 80 232.498 80C232.93 79.952 233.386 79.904 233.866 79.856C237.418 79.376 240.994 78.248 244.594 76.472C246.658 75.464 248.746 74.24 250.858 72.8C252.97 71.36 254.938 69.8 256.762 68.12C258.586 66.392 260.05 64.664 261.154 62.936C262.306 61.208 262.882 59.696 262.882 58.4C262.882 57.296 262.522 56.36 261.802 55.592C261.082 54.824 260.194 54.368 259.138 54.224C256.738 53.888 254.506 53.192 252.442 52.136C250.426 51.08 249.082 49.52 248.41 47.456C247.354 49.232 246.466 51.128 245.746 53.144C245.266 54.392 245.026 55.52 245.026 56.528C245.026 56.96 245.098 57.392 245.242 57.824C245.818 59.744 247.09 61.136 249.058 62C251.122 62.912 253.354 63.464 255.754 63.656C251.098 66.632 245.986 68.624 240.418 69.632C239.506 69.824 238.57 69.968 237.61 70.064C236.698 70.112 235.762 70.136 234.802 70.136C232.546 70.136 230.482 69.848 228.61 69.272C226.786 68.696 225.322 67.784 224.218 66.536C223.162 65.24 222.634 63.536 222.634 61.424C222.634 60.656 222.682 59.864 222.778 59.048C222.922 58.232 223.114 57.44 223.354 56.672C223.93 54.8 224.77 52.856 225.874 50.84C226.978 48.824 227.914 47.024 228.682 45.44C228.73 45.344 228.754 45.248 228.754 45.152C228.754 45.008 228.634 44.936 228.394 44.936ZM263.238 26.936C265.686 27.128 268.206 27.632 270.798 28.448L273.822 19.088C272.67 18.848 271.542 18.608 270.438 18.368C269.382 18.08 268.182 17.912 266.838 17.864C265.59 17.816 264.486 18.248 263.526 19.16C262.566 20.024 261.75 21.08 261.078 22.328C260.454 23.576 259.95 24.728 259.566 25.784C259.134 27.032 258.798 28.4 258.558 29.888C258.318 31.376 258.27 32.84 258.414 34.28C258.558 35.672 258.966 36.896 259.638 37.952C255.75 39.008 252.822 40.784 250.854 43.28C249.894 44.528 249.006 45.848 248.19 47.24C247.374 48.632 246.558 50.12 245.742 51.704L247.11 53C248.07 51.704 249.27 50.6 250.71 49.688C251.67 49.064 252.462 48.584 253.086 48.248C253.758 47.912 254.478 47.6 255.246 47.312C256.062 46.976 257.142 46.592 258.486 46.16C260.454 45.488 262.638 44.744 265.038 43.928C267.486 43.112 269.694 42.344 271.662 41.624C272.718 41.24 273.558 40.928 274.182 40.688C274.806 40.448 275.214 40.28 275.406 40.184C275.454 40.088 275.526 39.92 275.622 39.68C275.766 39.392 275.958 39.008 276.198 38.528C276.63 37.712 277.086 36.752 277.566 35.648C278.046 34.496 278.43 33.464 278.718 32.552C279.006 31.736 279.006 31.376 278.718 31.472C277.854 31.808 276.99 32.168 276.126 32.552C275.31 32.936 274.494 33.32 273.678 33.704C272.094 34.52 270.198 34.952 267.99 35C266.886 34.04 265.878 32.912 264.966 31.616C264.102 30.272 263.526 28.712 263.238 26.936ZM286.084 38.96L288.892 80L293.356 71.504L290.62 30.536L286.084 38.96ZM303.026 68.12C299.09 69.32 294.914 70.184 290.498 70.712L288.914 80C292.13 79.232 295.13 78.488 297.914 77.768C300.746 77.048 303.482 76.016 306.122 74.672C309.098 73.184 311.282 71.6 312.674 69.92C313.586 68.816 314.282 67.904 314.762 67.184C315.242 66.464 315.626 65.624 315.914 64.664C316.25 63.704 316.586 62.336 316.922 60.56C317.306 58.736 316.37 57.8 314.114 57.752C311.81 57.656 310.25 57.752 309.434 58.04C308.186 58.04 306.962 59.36 305.762 62C305.138 63.344 304.61 64.544 304.178 65.6C303.746 66.608 303.362 67.448 303.026 68.12ZM326.922 30.664L331.242 22.096C328.938 22.528 326.634 22.96 324.33 23.392C322.026 23.824 319.722 24.256 317.418 24.688L313.098 33.256C315.402 32.824 317.706 32.392 320.01 31.96C322.314 31.528 324.618 31.096 326.922 30.664ZM319.461 50.848C321.429 50.128 322.917 50.824 323.925 52.936C324.213 54.04 324.981 54.568 326.229 54.52C326.469 54.472 326.709 54.424 326.949 54.376C327.189 54.328 327.405 54.28 327.597 54.232L332.133 44.512L329.757 44.872L329.325 44.8C327.981 43.12 326.541 42.088 325.005 41.704C323.613 41.416 322.197 41.608 320.757 42.28C319.317 42.952 317.925 43.912 316.581 45.16C315.285 46.408 313.989 47.896 312.693 49.624C311.397 51.352 310.173 53.152 309.021 55.024C307.917 56.896 306.957 58.696 306.141 60.424L308.301 61C309.693 59.032 311.301 57.088 313.125 55.168C314.949 53.2 317.061 51.76 319.461 50.848ZM351.415 64.064L346.303 59.312C345.343 60.512 344.359 61.736 343.351 62.984C342.343 64.232 341.359 65.48 340.399 66.728L345.511 71.48C346.519 70.232 347.503 68.984 348.463 67.736C349.471 66.536 350.455 65.312 351.415 64.064ZM353.67 40.744C353.718 40.84 353.742 40.984 353.742 41.176C353.742 41.368 353.598 41.512 353.31 41.608L343.086 43.624C343.614 42.376 344.142 41.2 344.67 40.096C345.198 38.944 345.942 37.936 346.902 37.072C347.574 36.496 348.246 36.208 348.918 36.208C349.638 36.208 350.334 36.472 351.006 37C352.062 37.816 352.95 39.064 353.67 40.744ZM328.254 46.072L326.742 55C327.03 54.952 327.294 54.904 327.534 54.856C327.774 54.76 328.038 54.688 328.326 54.64C328.422 54.64 328.494 54.64 328.542 54.64C328.59 54.592 328.638 54.568 328.686 54.568C329.502 54.328 330.342 54.136 331.206 53.992C332.07 53.848 332.91 53.704 333.726 53.56V53.488C334.494 53.344 335.214 53.2 335.886 53.056C336.558 52.912 337.182 52.792 337.758 52.696C337.71 53.032 337.59 53.488 337.398 54.064C337.254 54.592 337.182 55.048 337.182 55.432C337.182 55.72 337.326 55.864 337.614 55.864C338.094 55.864 338.454 55.6 338.694 55.072C338.934 54.592 339.126 54.064 339.27 53.488C339.414 52.864 339.558 52.408 339.702 52.12C343.494 51.16 346.998 50.344 350.214 49.672C353.478 48.952 356.886 48.04 360.438 46.936L365.046 37C364.422 37.336 363.798 37.504 363.174 37.504C362.31 37.504 361.542 37.144 360.87 36.424C360.63 35.512 360.318 34.648 359.934 33.832C359.598 33.016 359.238 32.224 358.854 31.456C358.374 30.496 357.654 29.632 356.694 28.864C355.734 28.048 354.582 27.64 353.238 27.64C352.374 27.64 351.51 27.928 350.646 28.504C349.206 29.512 347.886 30.88 346.686 32.608C345.534 34.288 344.502 36.112 343.59 38.08C342.726 40.048 341.958 41.944 341.286 43.768C339.126 44.152 336.966 44.536 334.806 44.92C332.646 45.304 330.486 45.688 328.326 46.072H328.254ZM392.379 39.392L387.699 48.032L390.147 69.56L394.971 61.496C394.683 57.608 394.275 53.888 393.747 50.336C393.267 46.784 392.811 43.136 392.379 39.392ZM410.066 36.8C409.442 38.288 408.746 39.752 407.978 41.192C407.258 42.584 406.562 44.024 405.89 45.512C406.274 47.528 406.61 49.616 406.898 51.776C407.234 53.888 407.546 56 407.834 58.112C407.834 58.4 407.498 58.832 406.826 59.408C405.77 60.32 404.642 61.184 403.442 62C402.29 62.768 401.09 63.488 399.842 64.16C398.306 64.976 396.746 65.744 395.162 66.464C393.626 67.136 392.042 67.88 390.41 68.696L374.93 75.464C373.394 76.088 371.762 76.712 370.034 77.336C368.354 77.96 366.77 78.608 365.282 79.28C365.042 79.52 364.922 79.688 364.922 79.784C364.922 79.928 365.162 80 365.642 80C366.122 80 366.602 79.976 367.082 79.928C367.562 79.88 367.898 79.856 368.09 79.856C372.314 79.76 376.466 79.568 380.546 79.28C384.626 78.944 388.202 78.176 391.274 76.976C395.066 75.536 398.522 73.472 401.642 70.784C404.762 68.096 407.282 64.832 409.202 60.992C411.122 57.152 412.154 52.808 412.298 47.96C412.058 45.992 411.722 44.096 411.29 42.272C410.906 40.4 410.498 38.576 410.066 36.8ZM418.694 39.032L420.71 69.632L426.038 61.136L424.021 30.536L418.694 39.032ZM477.844 65C478.66 63.848 479.452 62.384 480.22 60.608C481.036 58.784 481.756 56.864 482.38 54.848C483.004 52.832 483.46 50.888 483.748 49.016C484.036 47.096 484.108 45.416 483.964 43.976C483.82 42.92 483.46 41.768 482.884 40.52C482.356 39.224 481.684 38.096 480.868 37.136C480.052 36.176 479.188 35.624 478.276 35.48C477.412 35.288 476.572 35.744 475.756 36.848C474.796 38.192 473.932 39.656 473.164 41.24C472.444 42.776 471.676 44.288 470.86 45.776C470.524 46.448 470.356 47.288 470.356 48.296C470.404 49.256 470.764 49.904 471.436 50.24C472.588 50.816 473.764 50.912 474.964 50.528C476.164 50.144 477.148 49.64 477.916 49.016C478.156 48.776 478.324 48.8 478.42 49.088C478.564 49.328 478.66 49.496 478.708 49.592C478.9 50.072 479.02 50.816 479.068 51.824C479.164 52.832 479.212 53.84 479.212 54.848C479.26 55.856 479.26 56.672 479.212 57.296C478.156 58.256 476.716 59.264 474.892 60.32C473.116 61.328 471.196 62.192 469.132 62.912C467.068 63.584 465.076 63.944 463.156 63.992C461.284 64.04 459.7 63.584 458.404 62.624C457.156 61.616 456.412 59.912 456.172 57.512C455.98 55.64 456.1 53.672 456.532 51.608C456.964 49.544 457.204 47.696 457.252 46.064C457.252 45.776 457.108 45.512 456.82 45.272C456.532 45.032 456.244 44.936 455.956 44.984C453.796 45.32 451.924 45.944 450.34 46.856C448.756 47.72 447.292 48.776 445.948 50.024C445.276 51.704 444.628 53.408 444.004 55.136C443.428 56.864 442.852 58.616 442.276 60.392C443.428 58.856 444.844 57.536 446.524 56.432C448.204 55.28 450.196 54.536 452.5 54.2C452.884 54.104 453.124 54.296 453.22 54.776C453.364 55.256 453.436 55.664 453.436 56C453.484 56.72 453.46 57.416 453.364 58.088C453.268 58.712 453.172 59.36 453.076 60.032C452.404 63.68 452.524 66.584 453.436 68.744C454.396 70.904 455.86 72.392 457.828 73.208C459.796 74.024 462.004 74.24 464.452 73.856C466.9 73.424 469.3 72.464 471.652 70.976C474.052 69.488 476.116 67.496 477.844 65ZM494.404 79.424C496.996 78.944 499.468 77.84 501.82 76.112C504.22 74.336 506.308 72.224 508.084 69.776C509.908 67.328 511.252 64.736 512.116 62C513.028 59.264 513.34 56.624 513.052 54.08C512.764 51.488 511.684 49.256 509.812 47.384C509.38 46.952 508.732 46.592 507.868 46.304C507.052 46.016 506.38 46.184 505.852 46.808C504.7 48.104 503.764 49.568 503.044 51.2C502.372 52.832 501.628 54.44 500.812 56.024C500.476 56.744 500.284 57.512 500.236 58.328C500.188 59.096 500.428 59.792 500.956 60.416C501.58 61.088 502.54 61.496 503.836 61.64C505.18 61.736 506.428 61.664 507.58 61.424C507.82 61.76 508.012 62.24 508.156 62.864C508.348 63.44 508.324 63.848 508.084 64.088C507.364 64.904 506.548 65.648 505.636 66.32C504.724 66.992 503.716 67.544 502.612 67.976C498.484 69.656 494.308 71.288 490.084 72.872C485.86 74.456 481.876 76.304 478.132 78.416C477.94 78.512 477.844 78.704 477.844 78.992C477.844 79.232 477.964 79.376 478.204 79.424C480.844 79.664 483.532 79.856 486.268 80C489.052 80.096 491.764 79.904 494.404 79.424ZM540.139 68.192C539.755 68.192 539.419 68.336 539.131 68.624C538.123 69.536 536.947 70.112 535.603 70.352C532.051 70.928 528.379 71.36 524.587 71.648C520.843 71.888 517.291 72.416 513.931 73.232C513.451 73.376 513.211 73.568 513.211 73.808C513.211 73.904 513.283 74.024 513.427 74.168C514.051 74.696 515.851 75.608 518.827 76.904C520.363 77.528 521.587 78.032 522.499 78.416C523.459 78.8 524.131 79.04 524.515 79.136C526.339 79.712 528.019 80 529.555 80C531.187 80 532.483 79.664 533.443 78.992C534.451 78.32 535.411 77.312 536.323 75.968C536.851 75.104 537.451 74.24 538.123 73.376C538.795 72.512 539.515 71.792 540.283 71.216C540.955 70.976 541.291 70.376 541.291 69.416C541.291 69.08 541.195 68.792 541.003 68.552C540.811 68.312 540.523 68.192 540.139 68.192ZM560.665 47.064L555.553 42.312C554.593 43.512 553.609 44.736 552.601 45.984C551.593 47.232 550.609 48.48 549.649 49.728L554.761 54.48C555.769 53.232 556.753 51.984 557.713 50.736C558.721 49.536 559.705 48.312 560.665 47.064ZM553.811 73.48C553.571 74.296 553.643 74.728 554.027 74.776C554.411 74.776 554.723 74.56 554.963 74.128C556.115 71.968 557.219 69.76 558.275 67.504C559.379 65.248 560.171 63.352 560.651 61.816C560.747 61.72 560.771 61.432 560.723 60.952C560.723 60.472 560.603 60.424 560.363 60.808C559.787 62.344 558.779 63.52 557.339 64.336C556.811 64.624 555.971 64.936 554.819 65.272C553.715 65.608 552.467 65.92 551.075 66.208C549.683 66.448 548.315 66.616 546.971 66.712C545.675 66.76 544.595 66.688 543.731 66.496C542.819 66.256 542.171 65.632 541.787 64.624C541.451 63.568 541.283 62.512 541.283 61.456C541.283 61.216 541.283 61.096 541.283 61.096C541.283 61.048 541.163 61.144 540.923 61.384C540.107 62.344 539.387 63.496 538.763 64.84C538.187 66.184 537.803 67.576 537.611 69.016C537.419 70.456 537.539 71.776 537.971 72.976C538.403 74.128 539.219 74.992 540.419 75.568C541.187 75.904 542.195 76.048 543.443 76C544.739 75.904 546.059 75.712 547.403 75.424C548.795 75.088 550.067 74.728 551.219 74.344C552.419 73.96 553.283 73.672 553.811 73.48ZM595.6 59.664C595.6 60 595.456 60.24 595.168 60.384C593.104 61.392 590.872 62.184 588.472 62.76C586.12 63.336 583.672 63.888 581.128 64.416C582.424 63.12 583.72 61.8 585.016 60.456C586.36 59.112 587.872 57.984 589.552 57.072C589.84 56.88 590.152 56.76 590.488 56.712C590.824 56.664 591.16 56.64 591.496 56.64C592.552 56.64 593.488 56.928 594.304 57.504C595.168 58.032 595.6 58.752 595.6 59.664ZM571.768 73.848C572.248 73.848 572.752 73.824 573.28 73.776C573.808 73.728 574.36 73.656 574.936 73.56C575.896 73.416 576.976 73.2 578.176 72.912C579.376 72.624 580.552 72.336 581.704 72.048C582.904 71.712 583.888 71.448 584.656 71.256C586.096 70.728 587.488 70.128 588.832 69.456C590.176 68.784 591.448 68.064 592.648 67.296C594.856 65.904 596.704 64.296 598.192 62.472C599.728 60.6 601.096 58.488 602.296 56.136C602.68 55.416 602.872 54.624 602.872 53.76C602.872 52.416 602.368 51.24 601.36 50.232C600.4 49.224 599.224 48.72 597.832 48.72C596.488 48.72 595.216 48.984 594.016 49.512C592.816 49.992 591.904 50.52 591.28 51.096C588.976 53.256 586.744 55.488 584.584 57.792C582.472 60.096 580.384 62.448 578.32 64.848C576.928 65.136 575.44 65.352 573.856 65.496L573.784 65.424C574.312 64.272 574.744 63.288 575.08 62.472C575.416 61.608 575.68 60.888 575.872 60.312C575.92 60.216 575.944 59.928 575.944 59.448C575.944 59.208 575.92 59.088 575.872 59.088C575.824 59.088 575.728 59.16 575.584 59.304C574.912 60.888 573.88 62.064 572.488 62.832C570.328 64.032 564.808 64.92 555.928 65.496L554.344 75C555.64 74.856 557.248 74.64 559.168 74.352C561.088 74.016 562.96 73.632 564.784 73.2C566.656 72.768 568.072 72.36 569.032 71.976C568.984 72.12 568.96 72.336 568.96 72.624C568.96 73.152 569.248 73.488 569.824 73.632C570.448 73.776 571.096 73.848 571.768 73.848ZM609.199 74.672C608.719 75.104 607.807 75.608 606.463 76.184C605.167 76.76 603.463 77.432 601.351 78.2C599.623 78.824 597.727 79.376 595.663 79.856C593.647 80.336 591.607 80.648 589.543 80.792C587.527 80.888 585.607 80.744 583.783 80.36C582.007 79.928 580.471 79.112 579.175 77.912C576.967 75.848 577.447 71.648 580.615 65.312C580.759 65.072 580.711 64.928 580.471 64.88C580.279 64.832 580.135 64.88 580.039 65.024C579.703 65.552 579.247 66.248 578.671 67.112C578.143 67.928 577.519 68.96 576.799 70.208C575.359 72.608 574.255 75.104 573.487 77.696C572.671 80.288 572.527 82.64 573.055 84.752C573.583 86.912 575.359 88.208 578.383 88.64C582.079 89.168 585.775 89.168 589.471 88.64C593.167 88.064 596.431 87.248 599.263 86.192C602.575 84.944 605.575 83.168 608.263 80.864C610.999 78.512 612.823 75.536 613.735 71.936C614.071 70.688 614.311 69.416 614.455 68.12C614.647 66.776 614.695 65.432 614.599 64.088L613.087 38.888L607.759 47.6C607.855 49.232 607.975 51.224 608.119 53.576C608.311 55.928 608.479 58.4 608.623 60.992C608.815 63.584 608.959 66.08 609.055 68.48C609.151 70.88 609.199 72.944 609.199 74.672ZM622.037 39.032L624.053 69.632L629.381 61.136L627.365 30.536L622.037 39.032Z" fill="black"/>
</svg>
