<svg width="381" height="378" viewBox="0 0 381 378" fill="none" xmlns="http://www.w3.org/2000/svg">
<path d="M102.809 63.3336C104.307 61.2166 105.761 58.5262 107.171 55.2625C108.669 51.9106 109.991 48.3823 111.136 44.6775C112.282 40.9728 113.119 37.4003 113.647 33.9602C114.176 30.4319 114.308 27.3446 114.044 24.6983C113.78 22.7577 113.119 20.6407 112.061 18.3473C111.092 15.9657 109.858 13.8928 108.36 12.1286C106.862 10.3645 105.276 9.35008 103.602 9.08546C102.016 8.73262 100.474 9.5706 98.9759 11.5994C97.2135 14.0692 95.6274 16.7596 94.2175 19.6705C92.8957 22.4931 91.4858 25.2717 89.9878 28.0061C89.371 29.2411 89.0626 30.7847 89.0626 32.6371C89.1507 34.4012 89.8116 35.5921 91.0452 36.2095C93.1601 37.268 95.319 37.4444 97.5219 36.7388C99.7249 36.0331 101.531 35.1069 102.941 33.9602C103.382 33.5192 103.69 33.5633 103.866 34.0925C104.131 34.5336 104.307 34.8423 104.395 35.0187C104.748 35.9008 104.968 37.268 105.056 39.1204C105.232 40.9728 105.32 42.8251 105.32 44.6775C105.408 46.5299 105.408 48.0294 105.32 49.1761C103.382 50.9403 100.738 52.7927 97.3897 54.7333C94.1294 56.5856 90.6046 58.1734 86.8156 59.4965C83.0265 60.7314 79.3696 61.393 75.8449 61.4812C72.4083 61.5694 69.5004 60.7314 67.1212 58.9673C64.8302 57.1149 63.4643 53.9835 63.0237 49.5731C62.6713 46.1329 62.8916 42.5164 63.6846 38.7234C64.4777 34.9305 64.9183 31.5345 65.0064 28.5354C65.0064 28.0061 64.742 27.521 64.2133 27.08C63.6846 26.6389 63.1559 26.4625 62.6272 26.5507C58.6619 27.1682 55.2253 28.3149 52.3174 29.9908C49.4095 31.5786 46.7219 33.5192 44.2546 35.8126C43.021 38.8999 41.8314 42.0313 40.6858 45.2068C39.6284 48.3823 38.571 51.6019 37.5136 54.8656C39.6284 52.0429 42.2279 49.6172 45.312 47.5884C48.3962 45.4714 52.0531 44.1042 56.2827 43.4867C56.9877 43.3103 57.4283 43.6631 57.6045 44.5452C57.8688 45.4273 58.001 46.1771 58.001 46.7945C58.0891 48.1176 58.0451 49.3967 57.8688 50.6316C57.6926 51.7783 57.5164 52.9691 57.3401 54.204C56.1065 60.9078 56.3268 66.2444 58.001 70.2138C59.7634 74.1832 62.451 76.9176 66.0638 78.4172C69.6766 79.9167 73.7301 80.3137 78.2241 79.608C82.7181 78.8141 87.124 77.05 91.4418 74.3155C95.8477 71.581 99.6367 67.9204 102.809 63.3336Z" fill="black"/>
<path d="M133.21 89.8402C137.968 88.9581 142.506 86.9293 146.824 83.7538C151.23 80.4901 155.063 76.6089 158.323 72.1103C161.672 67.6117 164.139 62.8484 165.725 57.8205C167.399 52.7927 167.972 47.9412 167.443 43.2662C166.915 38.5029 164.932 34.4012 161.496 30.9611C160.702 30.1672 159.513 29.5057 157.927 28.9764C156.429 28.4472 155.195 28.7559 154.226 29.9026C152.111 32.2842 150.393 34.9746 149.071 37.9737C147.837 40.9728 146.471 43.9277 144.973 46.8386C144.357 48.1617 144.004 49.5731 143.916 51.0726C143.828 52.4839 144.268 53.763 145.238 54.9097C146.383 56.1446 148.146 56.8944 150.525 57.159C152.992 57.3354 155.283 57.2031 157.398 56.762C157.839 57.3795 158.191 58.2616 158.455 59.4083C158.808 60.4668 158.764 61.2166 158.323 61.6576C157.001 63.1571 155.503 64.5244 153.829 65.7593C152.155 66.9942 150.305 68.0086 148.278 68.8025C140.7 71.8898 133.033 74.8889 125.279 77.7997C117.525 80.7106 110.211 84.1066 103.338 87.9878C102.985 88.1642 102.809 88.517 102.809 89.0463C102.809 89.4873 103.029 89.752 103.47 89.8402C108.316 90.2812 113.251 90.634 118.274 90.8987C123.385 91.0751 128.363 90.7222 133.21 89.8402Z" fill="black"/>
<path d="M217.17 69.1994C216.465 69.1994 215.848 69.464 215.319 69.9933C213.469 71.6692 211.31 72.7277 208.843 73.1688C202.322 74.2273 195.581 75.0212 188.62 75.5504C181.746 75.9915 175.226 76.9617 169.057 78.4613C168.176 78.7259 167.736 79.0787 167.736 79.5198C167.736 79.6962 167.868 79.9167 168.132 80.1814C169.278 81.1516 172.582 82.8276 178.046 85.2092C180.865 86.3559 183.112 87.2821 184.787 87.9878C186.549 88.6934 187.783 89.1345 188.487 89.3109C191.836 90.3694 194.92 90.8987 197.74 90.8987C200.736 90.8987 203.115 90.2812 204.877 89.0463C206.728 87.8114 208.49 85.959 210.164 83.4892C211.134 81.9014 212.235 80.3137 213.469 78.7259C214.703 77.1382 216.024 75.815 217.434 74.7565C218.668 74.3155 219.285 73.2129 219.285 71.4487C219.285 70.8313 219.108 70.302 218.756 69.861C218.404 69.4199 217.875 69.1994 217.17 69.1994Z" fill="black"/>
<path d="M242.269 78.917C241.828 80.4166 241.961 81.2104 242.666 81.2987C243.37 81.2987 243.943 80.9017 244.384 80.1078C246.499 76.1385 248.525 72.0809 250.464 67.9351C252.491 63.7893 253.945 60.3051 254.826 57.4824C255.002 57.306 255.046 56.7767 254.958 55.8947C254.958 55.0126 254.738 54.9244 254.297 55.63C253.24 58.4527 251.389 60.6138 248.746 62.1134C247.776 62.6426 246.234 63.216 244.119 63.8334C242.093 64.4509 239.802 65.0242 237.246 65.5535C234.691 65.9945 232.18 66.3032 229.712 66.4797C227.333 66.5679 225.35 66.4356 223.764 66.0827C222.09 65.6417 220.9 64.495 220.195 62.6426C219.579 60.702 219.27 58.7614 219.27 56.8209C219.27 56.3798 219.27 56.1593 219.27 56.1593C219.27 56.0711 219.05 56.2475 218.609 56.6885C217.111 58.4527 215.79 60.5697 214.644 63.0395C213.587 65.5094 212.882 68.0674 212.529 70.7137C212.177 73.3599 212.397 75.7856 213.19 77.9908C213.983 80.1078 215.481 81.6956 217.684 82.7541C219.094 83.3715 220.944 83.6362 223.236 83.548C225.615 83.3716 228.038 83.0187 230.505 82.4895C233.061 81.872 235.396 81.2104 237.511 80.5048C239.714 79.7991 241.3 79.2699 242.269 78.917Z" fill="black"/>
<path d="M285.7 30.3731L276.316 21.6404C274.554 23.8456 272.747 26.095 270.897 28.3884C269.046 30.6818 267.24 32.9752 265.477 35.2686L274.862 44.0012C276.712 41.7078 278.519 39.4144 280.281 37.121C282.132 34.9158 283.938 32.6665 285.7 30.3731Z" fill="black"/>
<path d="M318.984 53.5277C318.984 54.1452 318.72 54.5862 318.191 54.8509C314.402 56.7032 310.305 58.1587 305.899 59.2172C301.581 60.2757 297.087 61.2901 292.417 62.2604C294.796 59.8787 297.175 57.453 299.554 54.9832C302.022 52.5133 304.797 50.4405 307.881 48.7645C308.41 48.4117 308.983 48.1911 309.6 48.1029C310.217 48.0147 310.833 47.9706 311.45 47.9706C313.389 47.9706 315.107 48.4999 316.605 49.5584C318.191 50.5287 318.984 51.8518 318.984 53.5277ZM275.234 79.5933C276.115 79.5933 277.04 79.5492 278.009 79.461C278.979 79.3728 279.992 79.2405 281.05 79.064C282.812 78.7994 284.795 78.4025 286.997 77.8732C289.2 77.344 291.359 76.8147 293.474 76.2855C295.677 75.668 297.483 75.1829 298.893 74.83C301.537 73.8598 304.092 72.7572 306.56 71.5222C309.027 70.2873 311.362 68.9642 313.565 67.5529C317.618 64.9948 321.011 62.0398 323.743 58.6879C326.562 55.2478 329.074 51.3666 331.277 47.0444C331.982 45.7213 332.334 44.2659 332.334 42.6781C332.334 40.2083 331.409 38.0472 329.558 36.1948C327.796 34.3424 325.637 33.4162 323.082 33.4162C320.614 33.4162 318.279 33.9014 316.076 34.8717C313.873 35.7538 312.199 36.7241 311.054 37.7826C306.824 41.7519 302.727 45.8536 298.761 50.0876C294.884 54.3216 291.051 58.6438 287.262 63.0542C284.706 63.5835 281.975 63.9804 279.067 64.2451L278.935 64.1127C279.904 61.9957 280.697 60.1875 281.314 58.6879C281.931 57.1002 282.415 55.7771 282.768 54.7186C282.856 54.5421 282.9 54.0129 282.9 53.1308C282.9 52.6898 282.856 52.4692 282.768 52.4692C282.68 52.4692 282.503 52.6016 282.239 52.8662C281.005 55.7771 279.111 57.9382 276.555 59.3495C272.59 61.5547 262.457 63.1866 246.155 64.2451L243.247 81.7103C245.626 81.4457 248.578 81.0487 252.103 80.5195C255.627 79.902 259.064 79.1964 262.413 78.4025C265.849 77.6086 268.449 76.8588 270.211 76.1532C270.123 76.4178 270.079 76.8147 270.079 77.344C270.079 78.3143 270.608 78.9317 271.665 79.1964C272.81 79.461 274 79.5933 275.234 79.5933Z" fill="black"/>
<path d="M343.95 81.1075C343.069 81.9014 341.395 82.8276 338.927 83.8861C336.548 84.9446 333.42 86.1795 329.543 87.5908C326.371 88.7376 322.89 89.752 319.101 90.634C315.4 91.5161 311.655 92.0895 307.866 92.3541C304.165 92.5305 300.64 92.2659 297.292 91.5602C294.031 90.7663 291.212 89.2668 288.832 87.0616C284.779 83.2686 285.66 75.5504 291.476 63.9069C291.74 63.4659 291.652 63.2013 291.212 63.113C290.859 63.0248 290.595 63.113 290.419 63.3777C289.802 64.348 288.965 65.627 287.907 67.2147C286.938 68.7143 285.792 70.6107 284.471 72.9042C281.827 77.3146 279.8 81.9014 278.39 86.6647C276.892 91.4279 276.628 95.7501 277.597 99.6313C278.567 103.601 281.827 105.982 287.378 106.776C294.164 107.746 300.949 107.746 307.734 106.776C314.519 105.718 320.511 104.218 325.71 102.278C331.79 99.9841 337.297 96.7204 342.232 92.4864C347.255 88.1642 350.603 82.6953 352.277 76.0797C352.894 73.7862 353.335 71.4487 353.599 69.0671C353.952 66.5973 354.04 64.1274 353.863 61.6576L351.088 15.3482L341.307 31.358C341.483 34.3571 341.703 38.0178 341.968 42.34C342.32 46.6622 342.628 51.2049 342.893 55.9682C343.245 60.7314 343.51 65.3182 343.686 69.7287C343.862 74.1391 343.95 77.932 343.95 81.1075Z" fill="black"/>
<path d="M367.518 15.6129L371.219 71.8457L381 56.2328L377.299 0L367.518 15.6129Z" fill="black"/>
<path d="M46.6797 373.237L54.6103 357.492C50.3806 358.285 46.151 359.079 41.9213 359.873C37.6917 360.667 33.462 361.461 29.2323 362.255L21.3017 378C25.5314 377.206 29.7611 376.412 33.9907 375.618C38.2204 374.825 42.45 374.031 46.6797 373.237Z" fill="black"/>
<path d="M25.2144 291.041C24.95 291.041 24.7738 291.13 24.6857 291.306C23.5401 292.806 22.3065 294.658 20.9847 296.863C19.6629 299.068 18.209 301.582 16.6229 304.405C13.3625 310.138 10.8952 315.96 9.22098 321.87C8.60415 323.987 8.1195 326.016 7.76703 327.957C7.50268 329.897 7.3705 331.882 7.3705 333.911C7.3705 338.497 8.1195 342.246 9.61751 345.157C11.2036 347.98 13.8472 350.406 17.5481 352.434C19.4867 353.493 21.5134 354.287 23.6283 354.816C25.8312 355.257 28.0782 355.477 30.3693 355.477C31.1623 355.477 31.9554 355.477 32.7485 355.477C33.5415 355.389 34.3786 355.301 35.2598 355.213C41.7805 354.331 48.3453 352.258 54.9542 348.994C58.7432 347.142 62.5764 344.893 66.4536 342.246C70.3308 339.6 73.9436 336.733 77.2921 333.646C80.6405 330.47 83.3281 327.295 85.3549 324.119C87.4697 320.944 88.5271 318.165 88.5271 315.784C88.5271 313.755 87.8662 312.035 86.5445 310.624C85.2227 309.212 83.5925 308.374 81.6539 308.11C77.248 307.492 73.1505 306.213 69.3615 304.273C65.6605 302.332 63.1932 299.465 61.9596 295.672C60.021 298.936 58.3908 302.42 57.069 306.125C56.1878 308.418 55.7472 310.491 55.7472 312.344C55.7472 313.138 55.8794 313.931 56.1438 314.725C57.2012 318.254 59.5363 320.812 63.1491 322.399C66.9382 324.075 71.0357 325.09 75.4416 325.443C66.8942 330.911 57.5096 334.572 47.2879 336.425C45.6137 336.777 43.8954 337.042 42.133 337.218C40.4588 337.307 38.7405 337.351 36.9781 337.351C32.8366 337.351 29.0475 336.821 25.6109 335.763C22.2624 334.704 19.5748 333.028 17.5481 330.735C15.6095 328.353 14.6402 325.222 14.6402 321.341C14.6402 319.93 14.7283 318.474 14.9046 316.975C15.1689 315.475 15.5214 314.02 15.962 312.608C17.0194 309.168 18.5615 305.596 20.5882 301.891C22.6149 298.186 24.3332 294.878 25.7431 291.968C25.8312 291.791 25.8753 291.615 25.8753 291.438C25.8753 291.174 25.655 291.041 25.2144 291.041Z" fill="black"/>
<path d="M99.5164 243.497L90.1318 234.764C88.3695 236.97 86.563 239.219 84.7126 241.512C82.8621 243.806 81.0557 246.099 79.2933 248.393L88.6779 257.125C90.5283 254.832 92.3348 252.538 94.0971 250.245C95.9476 248.04 97.754 245.79 99.5164 243.497Z" fill="black"/>
<path d="M94.2045 270.93L94.3367 270.798C93.2793 270.268 91.8253 270.136 89.9749 270.401C83.8947 271.106 78.6958 273.532 74.378 277.678C70.5889 281.294 67.1964 285.352 64.2004 289.851C61.2925 294.349 58.9133 299.377 57.0628 304.934L59.8385 305.86C62.3939 302.244 65.3459 298.671 68.6944 295.143C72.131 291.526 76.0522 288.88 80.4581 287.204C82.0442 286.675 83.4101 286.631 84.5556 287.072V287.204C86.318 287.734 87.6838 289.013 88.6531 291.041C89.1818 293.158 90.5917 294.129 92.8827 293.952C93.2352 293.864 93.6317 293.776 94.0723 293.688C94.5129 293.599 94.9976 293.511 95.5263 293.423L103.721 275.561L99.2272 276.222C99.2272 276.222 99.1832 276.222 99.0951 276.222C99.0069 276.222 98.8307 276.178 98.5663 276.09C97.9495 275.296 97.3327 274.37 96.7159 273.311C96.099 272.253 95.306 271.459 94.3367 270.93H94.2045Z" fill="black"/>
<path d="M123.224 321.782L131.154 306.037C126.924 306.831 122.695 307.624 118.465 308.418C114.235 309.212 110.006 310.006 105.776 310.8L97.8456 326.545C102.075 325.751 106.305 324.957 110.535 324.164C114.764 323.37 118.994 322.576 123.224 321.782Z" fill="black"/>
<path d="M121.979 291.659H122.111C124.314 289.277 126.209 286.631 127.795 283.72C129.381 280.809 130.703 277.942 131.76 275.12C132.906 272.209 133.787 269.739 134.404 267.71C134.58 267.534 134.624 267.049 134.536 266.255C134.448 265.373 134.228 265.285 133.875 265.99C133.435 267.137 132.641 268.416 131.496 269.827C130.439 271.15 129.073 272.165 127.398 272.87C125.636 273.664 123.257 274.37 120.261 274.987C117.353 275.517 114.313 276.002 111.141 276.443C107.968 276.884 105.105 277.237 102.549 277.501C100.082 277.766 98.4517 277.942 97.6587 278.031L94.883 294.834C97.4384 294.57 100.39 294.173 103.739 293.643C107.175 293.114 110.524 292.497 113.784 291.791C117.045 291.085 119.688 290.292 121.715 289.409C121.627 289.851 121.539 290.38 121.451 290.997C121.451 291.526 121.627 291.747 121.979 291.659Z" fill="black"/>
<path d="M147.125 224.473L149.901 266.813L159.682 251.333L156.906 208.861L147.125 224.473ZM183.077 241.806C180.61 241.806 178.275 242.292 176.072 243.262C173.869 244.144 172.194 245.114 171.049 246.173C166.819 250.142 162.722 254.244 158.756 258.478C154.879 262.712 151.002 267.034 147.125 271.444C145.362 271.797 142.543 272.238 138.666 272.768C134.788 273.209 129.854 273.65 123.862 274.091V274.223L121.086 291.159C121.35 291.159 121.571 291.115 121.747 291.027V291.159C127.122 290.63 132.718 289.792 138.533 288.645C144.349 287.498 150.341 285.999 156.509 284.146C168.934 280.442 178.451 274.179 185.06 265.358C186.205 263.858 187.263 262.315 188.232 260.727C189.289 259.051 190.259 257.287 191.14 255.435C191.933 253.935 192.329 252.48 192.329 251.068C192.329 248.687 191.404 246.57 189.554 244.717C187.791 242.777 185.632 241.806 183.077 241.806ZM178.979 261.918C178.979 262.624 178.715 263.109 178.186 263.373C174.397 265.138 170.3 266.549 165.894 267.607C161.576 268.666 157.082 269.68 152.412 270.651C154.791 268.181 157.17 265.755 159.549 263.373C162.017 260.992 164.792 258.963 167.877 257.287C168.846 256.67 169.991 256.361 171.313 256.361C173.252 256.361 175.014 256.89 176.6 257.949C178.186 258.919 178.979 260.242 178.979 261.918Z" fill="black"/>
<path d="M203.891 285.661C203.803 285.661 203.758 285.749 203.758 285.925C202.172 288.483 199 290.865 194.242 293.07C189.748 295.011 184.593 296.643 178.777 297.966C172.961 299.289 166.969 299.95 160.801 299.95C157.805 299.95 155.029 299.686 152.474 299.157C150.007 298.627 148.024 297.613 146.526 296.113C145.116 294.526 144.411 292.32 144.411 289.498C144.411 285.705 146.129 280.456 149.566 273.753C149.654 273.576 149.698 273.4 149.698 273.223C149.698 272.959 149.478 272.826 149.037 272.826C148.773 272.826 148.597 272.915 148.509 273.091C147.892 274.061 147.055 275.34 145.997 276.928C145.028 278.516 143.882 280.456 142.561 282.75C141.239 284.955 140.093 287.204 139.124 289.498C138.155 291.791 137.318 294.129 136.613 296.51C135.643 299.598 135.159 302.376 135.159 304.846C135.159 305.64 135.203 306.434 135.291 307.228C135.467 307.933 135.599 308.639 135.687 309.345C136.304 312.167 138.111 314.152 141.107 315.299C144.103 316.357 147.627 316.886 151.681 316.886C156.88 316.886 163.312 316.225 170.979 314.902C176.53 313.931 181.377 312.917 185.518 311.859C189.748 310.8 193.272 309.609 196.092 308.286C196.357 309.874 197.326 310.668 199 310.668C199.353 310.668 199.705 310.668 200.058 310.668C200.41 310.579 200.762 310.491 201.115 310.403C202.26 310.05 203.406 309.653 204.552 309.212C205.785 308.683 207.019 308.11 208.253 307.492C209.486 306.787 210.191 306.434 210.367 306.434C210.455 307.051 210.808 307.36 211.425 307.36C212.747 307.36 214.333 307.007 216.183 306.301C218.034 305.508 219.752 304.625 221.338 303.655C223.012 302.597 224.114 301.715 224.642 301.009C226.845 298.186 228.387 294.79 229.269 290.821C230.238 286.763 230.943 282.485 231.383 277.987C231.383 277.898 231.383 277.854 231.383 277.854H231.251C231.075 278.031 230.943 278.251 230.855 278.516C229.269 284.514 225.171 288.13 218.562 289.365C218.827 288.307 219.047 287.248 219.223 286.19C219.399 285.131 219.488 284.029 219.488 282.882V282.353C219.488 282 219.399 281.824 219.223 281.824C219.047 281.824 218.915 282 218.827 282.353C218.298 283.235 217.813 284.249 217.373 285.396C216.932 286.543 216.315 287.469 215.522 288.175C214.2 289.145 212.526 290.115 210.5 291.085C208.561 292.056 206.446 292.585 204.155 292.673C204.067 292.673 203.979 292.673 203.891 292.673C203.891 292.585 203.891 292.541 203.891 292.541C204.067 291.571 204.199 290.733 204.287 290.027C204.375 289.233 204.419 288.616 204.419 288.175V287.645C204.419 287.645 204.375 287.337 204.287 286.719C204.199 286.013 204.067 285.661 203.891 285.661Z" fill="black"/>
<path d="M248.366 243.923L251.274 284.279C247.044 286.484 237.748 288.601 223.385 290.63L220.477 307.698C224.178 306.728 227.482 305.89 230.39 305.184C233.386 304.478 235.986 303.817 238.189 303.199C242.683 302.053 247.221 298.039 251.803 291.159L253.124 307.698L262.641 293.673L258.147 227.781L248.366 243.923Z" fill="black"/>
<path d="M311.206 226.958L301.821 218.225C300.059 220.431 298.253 222.68 296.402 224.973C294.552 227.267 292.745 229.56 290.983 231.854L300.367 240.586C302.218 238.293 304.024 235.999 305.787 233.706C307.637 231.501 309.444 229.251 311.206 226.958Z" fill="black"/>
<path d="M287.764 279.383C287.764 278.589 288.028 277.884 288.557 277.266C289.791 275.678 290.98 274.047 292.126 272.371C293.36 270.695 295.034 269.548 297.149 268.93C298.03 269.283 299.087 270.342 300.321 272.106C301.555 273.87 302.171 275.723 302.171 277.663C302.171 279.074 301.466 280.133 300.057 280.839C296.62 282.426 293.536 283.353 290.804 283.617C290.187 283.353 289.526 282.823 288.822 282.029C288.117 281.147 287.764 280.265 287.764 279.383ZM306.533 252.788C303.361 252.788 299.968 254.905 296.356 259.139C293.007 263.109 289.923 267.475 287.103 272.238C284.283 277.002 281.728 281.941 279.437 287.057L255.645 290.63L253.134 307.698L265.955 304.919L284.063 300.421C291.641 298.304 297.765 294.29 302.436 288.38C304.727 285.47 306.754 282.426 308.516 279.251C310.366 275.987 311.952 272.591 313.274 269.063C313.979 266.24 314.332 263.903 314.332 262.05C314.332 259.492 313.671 257.331 312.349 255.567C311.027 253.715 309.089 252.788 306.533 252.788Z" fill="black"/>
<path d="M351.041 273.591C352.362 268.916 352.891 264.02 352.627 258.904L349.719 216.167L339.806 232.177C339.982 234.382 340.114 236.058 340.202 237.205C340.378 238.263 340.511 239.19 340.599 239.983C340.775 240.777 340.907 241.836 340.995 243.159C341.171 244.482 341.304 246.511 341.392 249.245C341.568 253.832 341.788 258.816 342.053 264.197C342.317 269.577 342.449 274.473 342.449 278.883C338.043 280.824 332.712 282.412 326.456 283.647C320.288 284.881 314.34 285.719 308.612 286.16C305.704 286.337 302.708 286.381 299.624 286.293C296.628 286.116 294.028 285.543 291.825 284.573C289.623 283.602 288.213 282.059 287.596 279.942C286.715 282.323 285.789 284.97 284.82 287.881C283.939 290.791 283.058 293.967 282.177 297.407C282.265 299.348 283.058 300.847 284.556 301.906C286.142 302.876 287.904 303.449 289.843 303.626C292.927 303.979 296.275 304.111 299.888 304.023C303.589 303.846 307.555 303.493 311.784 302.964C321.918 301.641 330.421 298.642 337.294 293.967C344.256 289.292 348.838 282.5 351.041 273.591Z" fill="black"/>
<path d="M366.046 280.192L369.747 336.425L379.528 320.812L375.827 264.579L366.046 280.192Z" fill="black"/>
<path d="M39.3092 232.184L47.2398 216.439C43.0101 217.233 38.7805 218.026 34.5508 218.82C30.3212 219.614 26.0915 220.408 21.8618 221.202L13.9312 236.947C18.1609 236.153 22.3906 235.359 26.6202 234.565C30.8499 233.772 35.0795 232.978 39.3092 232.184Z" fill="black"/>
<path d="M17.8439 149.988C17.5795 149.988 17.4033 150.077 17.3152 150.253C16.1696 151.753 14.936 153.605 13.6142 155.81C12.2924 158.015 10.8385 160.529 9.25238 163.352C5.99202 169.086 3.52472 174.907 1.85048 180.817C1.23365 182.934 0.749002 184.963 0.396531 186.904C0.132177 188.844 0 190.829 0 192.858C0 197.445 0.749002 201.193 2.24701 204.104C3.83313 206.927 6.47667 209.353 10.1776 211.381C12.1162 212.44 14.1429 213.234 16.2578 213.763C18.4607 214.204 20.7077 214.425 22.9988 214.425C23.7918 214.425 24.5849 214.425 25.378 214.425C26.171 214.336 27.0081 214.248 27.8893 214.16C34.41 213.278 40.9748 211.205 47.5837 207.941C51.3727 206.089 55.2059 203.84 59.0831 201.193C62.9603 198.547 66.5731 195.68 69.9216 192.593C73.27 189.418 75.9576 186.242 77.9844 183.067C80.0992 179.891 81.1566 177.112 81.1566 174.731C81.1566 172.702 80.4957 170.982 79.174 169.571C77.8522 168.159 76.222 167.321 74.2834 167.057C69.8775 166.439 65.78 165.16 61.991 163.22C58.29 161.279 55.8227 158.412 54.5891 154.619C52.6505 157.883 51.0203 161.367 49.6985 165.072C48.8173 167.365 48.3767 169.438 48.3767 171.291C48.3767 172.085 48.5089 172.878 48.7733 173.672C49.8307 177.201 52.1658 179.759 55.7786 181.346C59.5677 183.022 63.6652 184.037 68.0711 184.39C59.5237 189.859 50.1391 193.519 39.9174 195.372C38.2432 195.724 36.5249 195.989 34.7625 196.165C33.0883 196.254 31.37 196.298 29.6076 196.298C25.4661 196.298 21.677 195.769 18.2404 194.71C14.8919 193.652 12.2043 191.976 10.1776 189.682C8.23903 187.301 7.26973 184.169 7.26973 180.288C7.26973 178.877 7.35785 177.421 7.53408 175.922C7.79844 174.422 8.15091 172.967 8.5915 171.555C9.64891 168.115 11.191 164.543 13.2177 160.838C15.2444 157.133 16.9627 153.825 18.3726 150.915C18.4607 150.738 18.5048 150.562 18.5048 150.385C18.5048 150.121 18.2845 149.988 17.8439 149.988Z" fill="black"/>
<path d="M81.8113 116.91C86.3053 117.263 90.9315 118.189 95.6899 119.689L101.241 102.488C99.1265 102.047 97.0557 101.606 95.029 101.165C93.0904 100.636 90.8874 100.327 88.4201 100.239C86.1291 100.151 84.1024 100.945 82.34 102.621C80.5776 104.208 79.0796 106.149 77.846 108.442C76.7004 110.736 75.7752 112.853 75.0703 114.793C74.2772 117.087 73.6604 119.601 73.2198 122.335C72.7792 125.07 72.6911 127.76 72.9554 130.406C73.2198 132.964 73.9688 135.214 75.2024 137.154C68.0649 139.095 62.6897 142.358 59.0769 146.945C57.3145 149.239 55.6843 151.664 54.1863 154.222C52.6883 156.78 51.1903 159.515 49.6923 162.426L52.2037 164.807C53.966 162.426 56.169 160.397 58.8125 158.721C60.5749 157.574 62.0288 156.692 63.1743 156.075C64.408 155.457 65.7298 154.884 67.1397 154.355C68.6377 153.737 70.6203 153.032 73.0876 152.238C76.7005 151.003 80.7098 149.636 85.1157 148.136C89.6097 146.637 93.6631 145.225 97.276 143.902C99.2146 143.196 100.757 142.623 101.902 142.182C103.048 141.741 103.797 141.432 104.149 141.256C104.237 141.079 104.369 140.771 104.546 140.33C104.81 139.8 105.163 139.095 105.603 138.213C106.396 136.713 107.233 134.949 108.114 132.92C108.996 130.803 109.701 128.907 110.229 127.231C110.758 125.731 110.758 125.07 110.229 125.246C108.643 125.863 107.057 126.525 105.471 127.231C103.973 127.936 102.475 128.642 100.977 129.348C98.069 130.847 94.5884 131.641 90.535 131.729C88.5083 129.965 86.6578 127.892 84.9835 125.511C83.3974 123.041 82.34 120.174 81.8113 116.91Z" fill="black"/>
<path d="M123.752 139.006L128.907 214.425L137.101 198.812L132.079 123.526L123.752 139.006Z" fill="black"/>
<path d="M154.853 192.593C147.628 194.798 139.962 196.386 131.855 197.356L128.947 214.425C134.851 213.013 140.358 211.646 145.469 210.323C150.668 209 155.691 207.103 160.537 204.633C166 201.899 170.01 198.988 172.565 195.901C174.239 193.872 175.517 192.196 176.398 190.873C177.279 189.55 177.984 188.006 178.513 186.242C179.13 184.478 179.747 181.964 180.364 178.7C181.069 175.348 179.35 173.628 175.209 173.54C170.979 173.364 168.115 173.54 166.617 174.069C164.326 174.069 162.079 176.495 159.876 181.346C158.731 183.816 157.761 186.022 156.968 187.962C156.175 189.814 155.47 191.358 154.853 192.593Z" fill="black"/>
<path d="M185.024 160.853C188.637 159.53 191.368 160.809 193.219 164.69C193.748 166.719 195.157 167.689 197.448 167.601C197.889 167.512 198.33 167.424 198.77 167.336C199.211 167.248 199.607 167.16 199.96 167.071L208.287 149.209L203.925 149.871L203.132 149.739C200.665 146.651 198.021 144.755 195.201 144.049C192.646 143.52 190.047 143.873 187.403 145.108C184.76 146.342 182.204 148.107 179.737 150.4C177.358 152.693 174.978 155.428 172.599 158.603C170.22 161.779 167.973 165.087 165.858 168.527C163.832 171.967 162.069 175.275 160.571 178.45L164.536 179.509C167.092 175.892 170.044 172.32 173.392 168.792C176.741 165.175 180.618 162.529 185.024 160.853Z" fill="black"/>
<path d="M239.769 123.761L247.699 108.016C243.47 108.81 239.24 109.604 235.01 110.398C230.781 111.191 226.551 111.985 222.321 112.779L214.391 128.524C218.621 127.731 222.85 126.937 227.08 126.143C231.31 125.349 235.539 124.555 239.769 123.761Z" fill="black"/>
<path d="M243.685 185.139L234.3 176.407C232.538 178.612 230.731 180.861 228.881 183.155C227.03 185.448 225.224 187.742 223.462 190.035L232.846 198.768C234.697 196.474 236.503 194.181 238.265 191.887C240.116 189.682 241.922 187.433 243.685 185.139Z" fill="black"/>
<path d="M247.825 142.285C247.914 142.461 247.958 142.726 247.958 143.079C247.958 143.432 247.693 143.696 247.165 143.873L228.395 147.577C229.365 145.284 230.334 143.123 231.303 141.094C232.273 138.977 233.638 137.125 235.401 135.537C236.634 134.478 237.868 133.949 239.102 133.949C240.424 133.949 241.701 134.434 242.935 135.405C244.873 136.904 246.504 139.198 247.825 142.285ZM201.167 152.076L198.391 168.483C198.92 168.395 199.405 168.306 199.845 168.218C200.286 168.042 200.77 167.909 201.299 167.821C201.475 167.821 201.608 167.821 201.696 167.821C201.784 167.733 201.872 167.689 201.96 167.689C203.458 167.248 205 166.895 206.586 166.63C208.172 166.366 209.714 166.101 211.212 165.837V165.704C212.622 165.44 213.944 165.175 215.178 164.91C216.411 164.646 217.557 164.425 218.614 164.249C218.526 164.866 218.306 165.704 217.953 166.763C217.689 167.733 217.557 168.571 217.557 169.277C217.557 169.806 217.821 170.071 218.35 170.071C219.231 170.071 219.892 169.585 220.333 168.615C220.773 167.733 221.126 166.763 221.39 165.704C221.654 164.558 221.919 163.72 222.183 163.19C229.144 161.426 235.577 159.927 241.481 158.692C247.473 157.369 253.729 155.693 260.25 153.664L268.709 135.405C267.564 136.022 266.418 136.331 265.273 136.331C263.687 136.331 262.277 135.669 261.043 134.346C260.603 132.67 260.03 131.082 259.325 129.583C258.708 128.083 258.047 126.628 257.342 125.217C256.461 123.452 255.139 121.865 253.377 120.453C251.615 118.954 249.5 118.204 247.032 118.204C245.446 118.204 243.86 118.733 242.274 119.792C239.63 121.644 237.207 124.158 235.004 127.334C232.889 130.421 230.995 133.773 229.321 137.389C227.735 141.006 226.325 144.49 225.091 147.842C221.126 148.548 217.16 149.253 213.195 149.959C209.23 150.665 205.264 151.37 201.299 152.076H201.167Z" fill="black"/>
<path d="M318.886 139.8L310.295 155.678L314.789 195.239L323.644 180.42C323.116 173.275 322.367 166.439 321.397 159.912C320.516 153.384 319.679 146.681 318.886 139.8Z" fill="black"/>
<path d="M351.356 135.037C350.211 137.772 348.933 140.462 347.523 143.108C346.201 145.666 344.923 148.312 343.69 151.047C344.395 154.752 345.012 158.589 345.54 162.558C346.157 166.439 346.73 170.32 347.259 174.202C347.259 174.731 346.642 175.525 345.408 176.583C343.47 178.259 341.399 179.847 339.196 181.346C337.081 182.758 334.878 184.081 332.587 185.316C329.767 186.815 326.903 188.227 323.995 189.55C321.176 190.785 318.268 192.152 315.272 193.652L286.854 206.089C284.034 207.236 281.038 208.382 277.866 209.529C274.782 210.676 271.874 211.867 269.142 213.101C268.701 213.543 268.481 213.851 268.481 214.028C268.481 214.292 268.922 214.425 269.803 214.425C270.684 214.425 271.565 214.38 272.446 214.292C273.328 214.204 273.944 214.16 274.297 214.16C282.051 213.984 289.674 213.631 297.164 213.101C304.654 212.484 311.218 211.073 316.858 208.867C323.819 206.221 330.164 202.428 335.891 197.489C341.619 192.549 346.245 186.551 349.77 179.494C353.295 172.437 355.189 164.455 355.454 155.546C355.013 151.929 354.396 148.445 353.603 145.093C352.898 141.653 352.149 138.301 351.356 135.037Z" fill="black"/>
<path d="M367.195 139.139L370.896 195.372L380.677 179.759L376.976 123.526L367.195 139.139Z" fill="black"/>
</svg>
